<svg width="248" height="83" viewBox="0 0 248 83" fill="none" xmlns="http://www.w3.org/2000/svg">
<path d="M101.008 64C100.24 64 99.568 63.736 98.992 63.208C98.464 62.68 98.2 62.008 98.2 61.192V10.576C98.2 9.808 98.464 9.16 98.992 8.632C99.568 8.056 100.24 7.768 101.008 7.768C101.776 7.768 102.424 8.056 102.952 8.632C103.528 9.16 103.816 9.808 103.816 10.576V58.672H131.968C132.736 58.672 133.384 58.936 133.912 59.464C134.488 59.944 134.776 60.568 134.776 61.336C134.776 62.104 134.488 62.752 133.912 63.28C133.384 63.76 132.736 64 131.968 64H101.008ZM147.003 64C146.139 64 145.443 63.76 144.915 63.28C144.435 62.752 144.195 62.056 144.195 61.192V27.424C144.195 26.56 144.435 25.888 144.915 25.408C145.443 24.88 146.139 24.616 147.003 24.616C147.819 24.616 148.467 24.88 148.947 25.408C149.475 25.888 149.739 26.56 149.739 27.424V61.192C149.739 62.056 149.475 62.752 148.947 63.28C148.467 63.76 147.819 64 147.003 64ZM146.931 17.128C145.875 17.128 144.963 16.744 144.195 15.976C143.427 15.208 143.043 14.272 143.043 13.168C143.043 11.968 143.427 11.032 144.195 10.36C145.011 9.64 145.947 9.28 147.003 9.28C148.011 9.28 148.899 9.64 149.667 10.36C150.483 11.032 150.891 11.968 150.891 13.168C150.891 14.272 150.507 15.208 149.739 15.976C148.971 16.744 148.035 17.128 146.931 17.128ZM166.663 64C165.799 64 165.103 63.76 164.575 63.28C164.095 62.752 163.855 62.08 163.855 61.264V27.424C163.855 26.56 164.095 25.888 164.575 25.408C165.103 24.88 165.799 24.616 166.663 24.616C167.479 24.616 168.127 24.88 168.607 25.408C169.135 25.888 169.399 26.56 169.399 27.424V29.872C170.935 28.096 172.831 26.704 175.087 25.696C177.391 24.688 179.863 24.184 182.503 24.184C185.911 24.184 188.959 24.904 191.647 26.344C194.335 27.736 196.447 29.8 197.983 32.536C199.567 35.272 200.359 38.608 200.359 42.544V61.264C200.359 62.032 200.095 62.68 199.567 63.208C199.039 63.736 198.391 64 197.623 64C196.807 64 196.135 63.736 195.607 63.208C195.079 62.68 194.815 62.032 194.815 61.264V42.544C194.815 38.08 193.567 34.792 191.071 32.68C188.623 30.52 185.575 29.44 181.927 29.44C179.575 29.44 177.439 29.896 175.519 30.808C173.647 31.72 172.159 32.968 171.055 34.552C169.951 36.136 169.399 37.936 169.399 39.952V61.264C169.399 62.08 169.135 62.752 168.607 63.28C168.127 63.76 167.479 64 166.663 64ZM215.318 64C214.502 64 213.83 63.76 213.302 63.28C212.822 62.752 212.582 62.08 212.582 61.264V10.504C212.582 9.688 212.822 9.04 213.302 8.56C213.83 8.032 214.502 7.768 215.318 7.768C216.134 7.768 216.782 8.032 217.262 8.56C217.79 9.04 218.054 9.688 218.054 10.504V43.264L238.358 24.904C239.606 23.8 240.782 23.848 241.886 25.048C242.414 25.624 242.654 26.248 242.606 26.92C242.606 27.544 242.318 28.096 241.742 28.576L227.342 41.608L242.318 60.04C243.374 61.336 243.254 62.536 241.958 63.64C241.334 64.168 240.686 64.384 240.014 64.288C239.342 64.24 238.766 63.904 238.286 63.28L223.454 45.064L218.054 50.032V61.264C218.054 62.08 217.79 62.752 217.262 63.28C216.782 63.76 216.134 64 215.318 64Z" fill="#EDE8F4"/>
<path d="M46 23H42.228C37.122 23 32.2 28.52 32.2 32.936V41.4L18.4 55.2V41.4H9.2C4.14 41.4 0 37.26 0 32.2V9.2C0 4.14 4.14 0 9.2 0H36.8C41.86 0 46 4.14 46 9.2V23ZM46 27.6H73.6C78.66 27.6 82.8 31.74 82.8 36.8V59.8C82.8 64.86 78.66 69 73.6 69H64.4V82.8L50.6 69H46C40.94 69 36.8 64.86 36.8 59.8V36.8C36.8 31.74 40.94 27.6 46 27.6Z" fill="#523484"/>
</svg>
