<svg width="785" height="785" viewBox="0 0 785 785" fill="none" xmlns="http://www.w3.org/2000/svg">
<path d="M375.83 234.216L407.126 238.663C449.489 244.684 483.817 296.285 478.611 332.924L468.631 403.148L566.856 533.915L583.127 419.419L659.457 430.267C701.439 436.233 740.669 406.765 746.635 364.783L773.754 173.957C779.72 131.975 750.253 92.7453 708.271 86.7792L479.279 54.237C437.297 48.2709 398.067 77.7383 392.101 119.72L375.83 234.216ZM370.406 272.381L141.415 239.839C99.4331 233.873 60.203 263.34 54.237 305.322L27.1185 496.148C21.1524 538.13 50.6198 577.36 92.6016 583.326L168.932 594.174L152.661 708.67L283.428 610.445L321.593 615.869C363.575 621.835 402.805 592.367 408.771 550.385L435.89 359.559C441.856 317.577 412.388 278.347 370.406 272.381Z" fill="#523484" fill-opacity="0.57"/>
<g clip-path="url(#clip0)">
<path d="M271.351 402.169C270.906 401.497 270.319 400.931 269.632 400.51C268.944 400.089 268.172 399.823 267.37 399.732C266.569 399.641 265.757 399.727 264.992 399.983C264.227 400.239 263.528 400.659 262.943 401.213L245.516 392.238L246.599 402.349L262.982 409.322C263.981 410.24 265.283 410.761 266.641 410.785C268 410.81 269.319 410.336 270.351 409.454C271.383 408.573 272.054 407.344 272.238 406.001C272.423 404.658 272.107 403.295 271.351 402.169H271.351Z" fill="#A0616A"/>
<path d="M255.863 406.238C255.548 406.383 255.206 406.459 254.859 406.463C254.512 406.467 254.168 406.397 253.85 406.26L237.296 399.095C231.636 396.646 227.061 392.229 224.42 386.666L215.718 368.337C215.075 367.514 214.602 366.572 214.325 365.566C214.047 364.561 213.972 363.51 214.101 362.475C214.231 361.44 214.565 360.44 215.082 359.533C215.599 358.627 216.291 357.831 217.117 357.191C217.942 356.551 218.887 356.08 219.895 355.805C220.904 355.529 221.957 355.455 222.994 355.586C224.031 355.717 225.033 356.05 225.941 356.568C226.849 357.085 227.646 357.776 228.286 358.601L243.583 386.919L257.707 397.565C258.112 397.871 258.412 398.294 258.568 398.776C258.723 399.258 258.727 399.776 258.578 400.26L257.192 404.728C257.043 405.207 256.751 405.629 256.355 405.939C256.204 406.058 256.039 406.158 255.863 406.238V406.238Z" fill="#4A405F"/>
<path d="M215.335 346.782C222.779 346.782 228.814 340.76 228.814 333.332C228.814 325.904 222.779 319.883 215.335 319.883C207.89 319.883 201.855 325.904 201.855 333.332C201.855 340.76 207.89 346.782 215.335 346.782Z" fill="#A0616A"/>
<path d="M220.794 509.766L227.522 509.766L230.724 483.871L220.793 483.871L220.794 509.766Z" fill="#A0616A"/>
<path d="M240.499 515.999L219.353 516L219.352 507.848L232.328 507.847C234.495 507.847 236.573 508.706 238.106 510.235C239.638 511.764 240.499 513.837 240.499 515.999L240.499 515.999Z" fill="#2F2E41"/>
<path d="M198.842 509.766L205.57 509.766L208.771 483.871L198.84 483.871L198.842 509.766Z" fill="#A0616A"/>
<path d="M218.546 515.999L197.4 516L197.4 507.848L210.376 507.847C212.543 507.847 214.621 508.706 216.153 510.235C217.685 511.764 218.546 513.837 218.546 515.999L218.546 515.999Z" fill="#2F2E41"/>
<path d="M196.492 502.354C196.261 502.09 196.088 501.779 195.986 501.443C195.884 501.107 195.856 500.753 195.902 500.405L207.682 412.25L236.95 417.21L240.073 415.339L231.996 498.982C231.929 499.546 231.669 500.071 231.259 500.466C230.85 500.862 230.316 501.104 229.748 501.152L220.886 501.889C220.534 501.919 220.179 501.872 219.846 501.753C219.514 501.634 219.21 501.445 218.957 501.199C218.704 500.952 218.507 500.655 218.379 500.326C218.251 499.997 218.195 499.645 218.215 499.293L220.51 459.459C220.514 459.391 220.493 459.325 220.45 459.272C220.408 459.219 220.347 459.183 220.28 459.172C220.213 459.162 220.144 459.176 220.087 459.213C220.03 459.249 219.989 459.306 219.971 459.371L208.62 501.372C208.478 501.895 208.167 502.357 207.737 502.686C207.306 503.016 206.778 503.194 206.235 503.195H198.351C197.999 503.195 197.651 503.12 197.33 502.975C197.01 502.83 196.724 502.618 196.492 502.354V502.354Z" fill="#2F2E41"/>
<path d="M216.761 418.421C216.425 418.117 215.994 417.941 215.541 417.922C215.088 417.903 214.643 418.043 214.283 418.318L208.431 422.859C208.113 423.107 207.739 423.273 207.341 423.342C206.943 423.412 206.534 423.383 206.15 423.259C205.766 423.134 205.419 422.917 205.138 422.627C204.858 422.337 204.653 421.983 204.542 421.596C201.672 411.566 195.169 386.321 196.771 368.552C197.679 358.48 206.396 350.826 216.202 351.468C222.906 351.914 227.316 355.773 229.311 362.937C234.207 380.527 239.589 412.792 240.618 419.082C240.699 419.57 240.631 420.071 240.421 420.52C240.212 420.968 239.872 421.343 239.445 421.595C236.677 423.253 233.514 424.142 230.285 424.167C226.378 424.167 221.693 422.81 216.761 418.421Z" fill="#4A405F"/>
<path d="M218.969 424.678C219.035 423.876 218.923 423.069 218.642 422.314C218.361 421.559 217.918 420.875 217.344 420.31C216.769 419.745 216.078 419.312 215.317 419.042C214.557 418.773 213.747 418.673 212.944 418.749L204.782 400.956L199.381 409.579L207.96 425.154C208.178 426.492 208.88 427.703 209.934 428.558C210.988 429.414 212.319 429.854 213.676 429.795C215.033 429.736 216.322 429.183 217.297 428.24C218.273 427.297 218.868 426.029 218.969 424.678Z" fill="#A0616A"/>
<path d="M204.265 418.344C203.928 418.263 203.611 418.113 203.336 417.902C203.061 417.691 202.833 417.425 202.668 417.121L194.074 401.29C191.135 395.878 190.266 389.585 191.629 383.581L196.117 363.801C196.122 362.757 196.332 361.725 196.736 360.763C197.14 359.801 197.73 358.928 198.472 358.194C199.215 357.459 200.095 356.878 201.063 356.483C202.031 356.089 203.067 355.888 204.112 355.893C205.158 355.898 206.192 356.109 207.156 356.513C208.119 356.917 208.994 357.507 209.729 358.249C210.464 358.99 211.046 359.869 211.441 360.835C211.835 361.801 212.035 362.835 212.029 363.878L206.551 395.58L211.081 412.654C211.21 413.144 211.184 413.662 211.009 414.137C210.833 414.612 210.516 415.022 210.099 415.311L206.245 417.973C205.831 418.258 205.341 418.411 204.838 418.411C204.645 418.411 204.453 418.389 204.265 418.344V418.344Z" fill="#4A405F"/>
<path opacity="0.2" d="M210.936 377.248L205.996 398.056L213.131 415.579L208.192 398.604L210.936 377.248Z" fill="black"/>
<path d="M207.643 344.392C206.444 344.414 205.252 344.199 204.137 343.759C203.646 343.57 203.137 343.415 202.647 343.226C198.321 341.559 195.472 336.962 195.37 332.337C195.268 327.711 197.669 323.221 201.234 320.262C204.799 317.303 209.416 315.784 214.04 315.433C219.021 315.055 224.629 316.315 227.412 320.453C228.153 321.555 228.671 322.892 228.232 324.222C228.101 324.623 227.866 324.983 227.551 325.265C226.308 326.369 225.069 325.539 223.802 325.466C222.061 325.365 220.496 326.772 219.934 328.419C219.372 330.067 219.62 331.881 220.073 333.562C220.419 334.573 220.637 335.623 220.722 336.689C220.759 337.223 220.658 337.757 220.43 338.242C220.202 338.726 219.853 339.144 219.417 339.456C218.329 340.113 216.9 339.733 215.811 339.078C214.722 338.422 213.781 337.511 212.605 337.029C211.429 336.547 209.849 336.654 209.164 337.723C208.946 338.112 208.799 338.536 208.729 338.976C208.115 341.766 208.256 341.602 207.643 344.392L207.643 344.392Z" fill="#2F2E41"/>
<path d="M606.634 251.21H273.505C272.236 251.211 271.02 251.715 270.122 252.61C269.225 253.505 268.72 254.719 268.719 255.985V481.223C268.721 482.489 269.225 483.703 270.122 484.599C271.02 485.494 272.236 485.997 273.505 485.998H606.634C607.326 485.998 608.01 485.849 608.638 485.559C609.266 485.27 609.824 484.848 610.273 484.323C610.311 484.282 610.346 484.238 610.377 484.191C610.663 483.843 610.894 483.453 611.063 483.036C611.304 482.462 611.427 481.846 611.425 481.223V341.011H610.059V481.223C610.059 481.889 609.863 482.541 609.493 483.096C609.165 483.585 608.72 483.984 608.198 484.257C607.715 484.506 607.178 484.636 606.634 484.635H273.505C272.599 484.634 271.73 484.274 271.089 483.634C270.448 482.995 270.087 482.128 270.086 481.223V255.985C270.087 255.081 270.448 254.214 271.089 253.574C271.73 252.935 272.599 252.575 273.505 252.574H606.634C607.541 252.574 608.412 252.933 609.054 253.573C609.696 254.212 610.057 255.08 610.059 255.985V286.251H611.425V255.985C611.424 254.718 610.918 253.504 610.02 252.609C609.122 251.713 607.904 251.21 606.634 251.21V251.21Z" fill="white"/>
<path d="M610.738 270.35H269.401V271.716H610.738V270.35Z" fill="white"/>
<path d="M281.029 265.545C283.296 265.545 285.134 263.712 285.134 261.45C285.134 259.189 283.296 257.355 281.029 257.355C278.763 257.355 276.925 259.189 276.925 261.45C276.925 263.712 278.763 265.545 281.029 265.545Z" fill="#CCCCCC"/>
<path d="M292.829 265.545C295.096 265.545 296.933 263.712 296.933 261.45C296.933 259.189 295.096 257.355 292.829 257.355C290.562 257.355 288.725 259.189 288.725 261.45C288.725 263.712 290.562 265.545 292.829 265.545Z" fill="#CCCCCC"/>
<path d="M304.629 265.545C306.896 265.545 308.733 263.712 308.733 261.45C308.733 259.189 306.896 257.355 304.629 257.355C302.362 257.355 300.525 259.189 300.525 261.45C300.525 263.712 302.362 265.545 304.629 265.545Z" fill="#CCCCCC"/>
<path d="M693.115 326.911H596.524C595.36 326.911 594.243 326.45 593.419 325.628C592.596 324.807 592.134 323.692 592.134 322.53C592.134 321.369 592.596 320.254 593.419 319.433C594.243 318.611 595.36 318.15 596.524 318.15H693.115C694.279 318.15 695.396 318.611 696.22 319.433C697.043 320.254 697.506 321.369 697.506 322.53C697.506 323.692 697.043 324.807 696.22 325.628C695.396 326.45 694.279 326.911 693.115 326.911Z" fill="#CCCCCC"/>
<path d="M630.002 308.293H596.524C595.36 308.293 594.243 307.831 593.419 307.01C592.596 306.188 592.134 305.074 592.134 303.912C592.134 302.75 592.596 301.636 593.419 300.814C594.243 299.993 595.36 299.531 596.524 299.531H630.002C631.166 299.531 632.283 299.993 633.106 300.814C633.93 301.636 634.392 302.75 634.392 303.912C634.392 305.074 633.93 306.188 633.106 307.01C632.283 307.831 631.166 308.293 630.002 308.293Z" fill="#CCCCCC"/>
<path d="M552.775 332.249C563.08 332.249 571.434 323.914 571.434 313.631C571.434 303.348 563.08 295.013 552.775 295.013C542.469 295.013 534.115 303.348 534.115 313.631C534.115 323.914 542.469 332.249 552.775 332.249Z" fill="#3B1D6D"/>
<path d="M702.797 285.156H528.823C526.35 285.159 523.979 286.141 522.23 287.886C520.481 289.631 519.497 291.997 519.494 294.465V332.797C519.497 335.265 520.481 337.631 522.23 339.376C523.979 341.121 526.35 342.103 528.823 342.106H702.797C705.27 342.103 707.641 341.121 709.39 339.376C711.139 337.631 712.123 335.265 712.127 332.797V294.465C712.123 291.997 711.139 289.631 709.39 287.886C707.641 286.141 705.27 285.159 702.797 285.156V285.156ZM711.029 332.797C711.026 334.975 710.158 337.062 708.615 338.602C707.072 340.142 704.979 341.008 702.797 341.011H528.823C526.641 341.008 524.549 340.142 523.005 338.602C521.462 337.062 520.594 334.975 520.591 332.797V294.465C520.594 292.287 521.462 290.2 523.005 288.66C524.549 287.12 526.641 286.254 528.823 286.251H702.797C704.979 286.254 707.072 287.12 708.615 288.66C710.158 290.2 711.026 292.287 711.029 294.465V332.797Z" fill="white"/>
<path d="M711.029 300.489C718 300.489 723.652 294.85 723.652 287.894C723.652 280.938 718 275.299 711.029 275.299C704.058 275.299 698.406 280.938 698.406 287.894C698.406 294.85 704.058 300.489 711.029 300.489Z" fill="#3B1D6D"/>
<path d="M710.641 294.977C710.59 294.926 710.55 294.866 710.522 294.799C710.494 294.733 710.48 294.662 710.48 294.59V280.65C710.48 280.505 710.538 280.366 710.641 280.263C710.744 280.16 710.884 280.103 711.029 280.103C711.175 280.103 711.314 280.16 711.417 280.263C711.52 280.366 711.578 280.505 711.578 280.65V294.59C711.578 294.698 711.546 294.804 711.485 294.894C711.425 294.984 711.339 295.054 711.239 295.096C711.139 295.137 711.029 295.148 710.922 295.127C710.816 295.106 710.718 295.054 710.641 294.977V294.977Z" fill="white"/>
<path d="M703.656 288.007C703.579 287.931 703.527 287.833 703.506 287.727C703.485 287.621 703.496 287.511 703.537 287.411C703.579 287.31 703.649 287.225 703.739 287.165C703.829 287.105 703.935 287.073 704.044 287.073H718.014C718.16 287.073 718.3 287.13 718.402 287.233C718.505 287.336 718.563 287.475 718.563 287.62C718.563 287.765 718.505 287.905 718.402 288.007C718.3 288.11 718.16 288.168 718.014 288.168H704.044C703.972 288.168 703.901 288.154 703.834 288.126C703.767 288.099 703.707 288.058 703.656 288.007V288.007Z" fill="white"/>
<path d="M726.14 455.298H699.791C699.791 456.054 672.636 456.667 672.636 456.667C672.21 456.987 671.822 457.355 671.478 457.762C670.447 458.99 669.883 460.541 669.887 462.143V463.238C669.887 465.053 670.61 466.794 671.897 468.078C673.183 469.361 674.927 470.083 676.747 470.083H726.14C727.959 470.082 729.703 469.36 730.989 468.077C732.275 466.793 732.998 465.053 733 463.238V462.143C732.997 460.328 732.274 458.589 730.988 457.306C729.702 456.023 727.958 455.301 726.14 455.298Z" fill="#3F3D56"/>
<path d="M705.282 469.811H698.148V515.81H705.282V469.811Z" fill="#3F3D56"/>
<path d="M725.588 515.559C725.588 516.329 714.777 515.857 701.441 515.857C688.104 515.857 677.293 516.329 677.293 515.559C677.293 514.79 688.104 508.691 701.441 508.691C714.777 508.691 725.588 514.79 725.588 515.559Z" fill="#3F3D56"/>
<path d="M704.004 393.656C712.491 393.656 719.371 386.791 719.371 378.323C719.371 369.855 712.491 362.991 704.004 362.991C695.517 362.991 688.637 369.855 688.637 378.323C688.637 386.791 695.517 393.656 704.004 393.656Z" fill="#2F2E41"/>
<path d="M665.763 509.509L659.034 509.509L655.833 483.614L665.764 483.615L665.763 509.509Z" fill="#FFB8B8"/>
<path d="M654.228 507.591H667.204V515.743H646.058C646.058 513.581 646.919 511.507 648.451 509.978C649.983 508.45 652.061 507.591 654.228 507.591V507.591Z" fill="#2F2E41"/>
<path d="M655.26 505.762L648.84 503.752L653.556 478.089L663.03 481.056L655.26 505.762Z" fill="#FFB8B8"/>
<path d="M644.83 500.486L657.211 504.363L654.765 512.141L634.589 505.823C635.237 503.761 636.681 502.039 638.602 501.038C640.522 500.038 642.763 499.839 644.83 500.486V500.486Z" fill="#2F2E41"/>
<path d="M708.12 450.809C707.965 449.505 707.686 448.217 707.286 446.965L706.029 445.388L702.758 441.292L702.616 441.298C702.374 441.309 701.37 441.363 699.817 441.484H699.8C698.84 441.56 697.665 441.659 696.332 441.785C695.981 441.823 695.613 441.856 695.234 441.894V447.611H702.094C702.428 447.612 702.75 447.733 703 447.953C703.25 448.172 703.412 448.475 703.455 448.805C703.461 448.865 703.466 448.92 703.466 448.98C703.466 449.343 703.322 449.692 703.064 449.948C702.807 450.205 702.458 450.349 702.094 450.349H662.251C661.743 450.686 661.255 451.051 660.791 451.445C659.387 452.529 658.375 454.04 657.909 455.749C655.583 465.956 651.34 484.99 650.089 490.581C649.998 491.003 650.019 491.44 650.149 491.851C650.278 492.262 650.513 492.632 650.83 492.925C651.063 493.142 651.337 493.312 651.637 493.423L656.587 495.274C656.79 495.349 657.002 495.399 657.218 495.422C657.245 495.422 657.267 495.428 657.295 495.428C657.346 495.432 657.397 495.434 657.448 495.433C657.949 495.431 658.437 495.278 658.85 494.995C659.262 494.712 659.579 494.311 659.759 493.845L663.667 483.616L669.687 467.845L672.069 461.608C674.829 462.254 697.989 467.369 705.744 459.127C706.509 458.315 707.112 457.366 707.522 456.329C708.175 454.567 708.38 452.67 708.12 450.809Z" fill="#2F2E41"/>
<path d="M714.838 452.299C714.717 451.811 714.58 451.308 714.421 450.798L709.893 445.125L709.75 445.131C709.465 445.147 708.109 445.218 706.029 445.388C703.669 445.585 700.371 445.903 696.666 446.401C696.557 446.412 696.442 446.429 696.332 446.445C695.97 446.494 695.602 446.544 695.234 446.598V447.611H702.094C702.428 447.612 702.75 447.733 703 447.953C703.25 448.172 703.412 448.475 703.455 448.805C703.461 448.865 703.466 448.92 703.466 448.98C703.466 449.343 703.322 449.692 703.064 449.948C702.807 450.205 702.458 450.349 702.094 450.349H677.848C676.789 450.694 675.768 451.056 674.791 451.445C669.665 453.471 665.829 456.127 665.044 459.582C664.78 460.743 664.49 462.019 664.182 463.377C663.041 468.426 661.652 474.608 660.396 480.226V480.232C660.138 481.393 659.88 482.521 659.633 483.616C658.584 488.325 657.695 492.317 657.223 494.415C657.212 494.475 657.202 494.53 657.19 494.59V494.601C657.136 495.025 657.189 495.456 657.344 495.855L657.35 495.86V495.866C657.501 496.247 657.746 496.585 658.063 496.846C658.275 497.02 658.514 497.159 658.771 497.257L663.721 499.107C663.997 499.21 664.289 499.264 664.583 499.266C664.995 499.267 665.401 499.164 665.763 498.965C666.282 498.685 666.683 498.228 666.893 497.678L677.551 469.773L679.203 465.441C681.964 466.087 705.124 471.196 712.878 462.96C714.41 461.306 715.285 459.15 715.337 456.899C715.391 455.349 715.223 453.8 714.838 452.299V452.299Z" fill="#2F2E41"/>
<path d="M714.228 403.99C714.141 403.886 714.047 403.782 713.949 403.683C712.487 402.15 710.682 400.984 708.682 400.28C706.681 399.577 704.542 399.356 702.44 399.636C700.606 399.877 698.79 400.233 697.001 400.704C694.692 401.297 692.577 402.48 690.866 404.137C689.533 405.427 688.483 406.979 687.783 408.694C687.083 410.41 686.748 412.252 686.799 414.104C686.821 414.854 686.826 415.621 686.816 416.398C686.816 416.76 686.81 417.126 686.805 417.493H692.216C692.451 417.493 692.685 417.52 692.913 417.576C693.573 417.733 694.161 418.108 694.582 418.639C695.003 419.17 695.233 419.828 695.234 420.505V445.979C695.602 446.083 695.97 446.187 696.332 446.297C696.447 446.335 696.557 446.368 696.667 446.401C696.793 446.439 696.919 446.478 697.04 446.516C698.154 446.861 699.242 447.226 700.305 447.611H702.094C702.428 447.612 702.75 447.733 703 447.953C703.25 448.172 703.412 448.475 703.455 448.805C703.829 448.953 704.191 449.101 704.547 449.249C705.815 449.774 707.017 450.3 708.12 450.809C709.608 451.488 710.93 452.134 712.039 452.698C712.388 452.876 712.773 452.969 713.164 452.972C713.678 452.97 714.177 452.806 714.591 452.501C714.677 452.438 714.759 452.37 714.838 452.299C715.131 452.024 715.353 451.682 715.484 451.302C715.615 450.922 715.652 450.516 715.59 450.119C715.023 445.818 714.858 441.473 715.096 437.141C715.249 433.5 715.579 429.765 716.007 426.156C716.237 424.201 716.495 422.285 716.764 420.439C717.022 418.676 717.297 416.984 717.565 415.385C717.918 413.357 717.801 411.276 717.223 409.301C716.644 407.326 715.62 405.509 714.228 403.99V403.99Z" fill="#3B1D6D"/>
<path d="M691.733 404.439C691.451 404.318 691.161 404.217 690.866 404.137C689.403 403.745 687.848 403.89 686.483 404.546C685.119 405.203 684.037 406.327 683.435 407.713L679.664 416.398L679.192 417.493H692.216C692.451 417.493 692.685 417.52 692.913 417.576L693.352 416.562L695.02 412.718C695.683 411.185 695.709 409.452 695.093 407.9C694.476 406.348 693.268 405.103 691.733 404.439V404.439Z" fill="#3B1D6D"/>
<path d="M703.442 395.36C710.887 395.36 716.922 389.339 716.922 381.911C716.922 374.483 710.887 368.461 703.442 368.461C695.998 368.461 689.963 374.483 689.963 381.911C689.963 389.339 695.998 395.36 703.442 395.36Z" fill="#FFB8B8"/>
<path d="M689.72 375.303C696.105 379.192 703.303 381.558 710.754 382.218L708.537 379.567C710.151 380.163 711.85 380.5 713.57 380.565C715.288 380.538 717.088 379.878 718.063 378.466C718.498 377.765 718.756 376.968 718.816 376.146C718.875 375.323 718.735 374.498 718.406 373.741C717.73 372.231 716.679 370.919 715.351 369.929C712.998 368.072 710.221 366.825 707.267 366.298C704.314 365.771 701.275 365.982 698.423 366.911C696.467 367.494 694.715 368.616 693.367 370.147C692.089 371.72 689.629 373.121 690.284 375.038L689.72 375.303Z" fill="#2F2E41"/>
<path d="M705.709 364.449C701.457 360.147 696.313 356.828 690.637 354.724C686.993 353.377 683.028 352.545 679.219 353.31C675.41 354.075 671.807 356.704 670.745 360.433C669.876 363.482 670.773 366.765 672.121 369.636C673.47 372.506 675.27 375.168 676.361 378.145C677.474 381.183 677.808 384.451 677.334 387.651C676.861 390.85 675.593 393.882 673.648 396.469C671.702 399.056 669.14 401.117 666.193 402.466C663.246 403.814 660.009 404.407 656.774 404.19C660.517 404.691 663.967 406.446 667.625 407.38C671.283 408.314 675.601 408.251 678.319 405.636C681.195 402.869 681.253 398.371 681.114 394.387C680.907 388.465 680.7 382.542 680.494 376.62C680.388 373.6 680.298 370.483 681.39 367.664C682.481 364.845 685.076 362.376 688.104 362.402C690.4 362.421 692.431 363.809 694.272 365.177C696.113 366.546 698.062 368.005 700.348 368.209C702.634 368.412 705.245 366.724 705.074 364.44L705.709 364.449Z" fill="#2F2E41"/>
<path d="M716.764 420.439L709.07 420.648L708.51 426.041L708.384 427.29L696.332 432.689L695.234 433.182V442.781L696.332 442.469L699.8 441.484H699.817L715.096 437.141L715.271 437.092C716.506 436.736 717.592 435.993 718.37 434.972C719.147 433.95 719.573 432.706 719.585 431.424L719.623 425.056L719.656 420.363L716.764 420.439Z" fill="#FFB8B8"/>
<path d="M719.267 409.772C719.164 408.105 718.402 406.547 717.148 405.44C715.894 404.334 714.25 403.769 712.579 403.872C710.909 403.974 709.347 404.735 708.238 405.986C707.129 407.237 706.564 408.877 706.666 410.544L707.506 424.212C707.528 424.572 707.63 424.922 707.804 425.238C707.977 425.555 708.218 425.829 708.51 426.041C708.974 426.386 709.546 426.555 710.123 426.518L716.007 426.156L717.791 426.047C718.115 426.031 718.434 425.949 718.726 425.807C719.018 425.665 719.279 425.465 719.492 425.22C719.539 425.168 719.583 425.113 719.623 425.056C719.972 424.59 720.143 424.015 720.106 423.435L719.267 409.772Z" fill="#3B1D6D"/>
<path d="M697.04 446.516H696.332V446.445C695.97 446.494 695.602 446.544 695.234 446.598V447.611H700.305C699.24 447.228 698.152 446.863 697.04 446.516ZM697.04 446.516H696.332V446.445C695.97 446.494 695.602 446.544 695.234 446.598V447.611H700.305C699.24 447.228 698.152 446.863 697.04 446.516ZM702.094 446.516H696.332V420.505C696.33 419.615 696.038 418.749 695.501 418.038C694.963 417.327 694.209 416.809 693.352 416.563C692.983 416.452 692.6 416.396 692.216 416.398H643.371C642.28 416.4 641.234 416.833 640.462 417.603C639.691 418.373 639.257 419.416 639.255 420.505V447.338C639.256 448.427 639.69 449.471 640.461 450.241C641.233 451.011 642.28 451.444 643.371 451.444H702.094C702.702 451.443 703.289 451.219 703.741 450.814C704.194 450.409 704.481 449.852 704.547 449.249C704.559 449.16 704.564 449.07 704.564 448.98C704.563 448.327 704.302 447.701 703.84 447.239C703.377 446.777 702.749 446.517 702.094 446.516V446.516ZM703.466 448.98C703.466 449.343 703.322 449.691 703.064 449.948C702.807 450.205 702.458 450.349 702.094 450.349H643.371C642.571 450.349 641.804 450.031 641.238 449.467C640.672 448.902 640.353 448.136 640.353 447.338V420.505C640.353 419.707 640.672 418.941 641.238 418.376C641.804 417.811 642.571 417.494 643.371 417.493H692.216C692.451 417.493 692.685 417.52 692.913 417.576C693.573 417.733 694.161 418.108 694.582 418.639C695.003 419.17 695.233 419.828 695.234 420.505V447.611H702.094C702.428 447.612 702.75 447.733 703 447.953C703.25 448.172 703.412 448.475 703.455 448.805C703.461 448.865 703.466 448.92 703.466 448.98V448.98ZM697.04 446.516H696.332V446.445C695.97 446.494 695.602 446.544 695.234 446.598V447.611H700.305C699.24 447.228 698.152 446.863 697.04 446.516Z" fill="white"/>
<path d="M667.792 437.208C669.611 437.208 671.085 435.737 671.085 433.922C671.085 432.107 669.611 430.636 667.792 430.636C665.973 430.636 664.499 432.107 664.499 433.922C664.499 435.737 665.973 437.208 667.792 437.208Z" fill="#3B1D6D"/>
<path d="M373.674 164.081C373.662 164.331 373.67 164.582 373.697 164.831L356.463 179.262L351.324 177.406L347.502 184.778L358.738 190.115L377.578 169.019C378.53 169.192 379.511 169.071 380.392 168.673C381.273 168.275 382.011 167.619 382.51 166.792C383.008 165.965 383.242 165.007 383.18 164.044C383.119 163.081 382.766 162.16 382.167 161.402C381.568 160.645 380.752 160.087 379.828 159.803C378.904 159.52 377.915 159.524 376.993 159.815C376.071 160.105 375.26 160.669 374.667 161.431C374.074 162.194 373.728 163.118 373.674 164.081L373.674 164.081Z" fill="#FFB8B8"/>
<path d="M350.561 188.315L333.919 182.321C332.391 181.771 331.145 180.638 330.454 179.17C329.764 177.703 329.686 176.023 330.237 174.498C330.789 172.974 331.925 171.731 333.395 171.042C334.865 170.353 336.549 170.275 338.077 170.825L354.719 176.819C354.971 176.91 355.203 177.049 355.401 177.229C355.6 177.409 355.76 177.627 355.874 177.869C355.988 178.111 356.053 178.373 356.065 178.64C356.078 178.908 356.037 179.175 355.946 179.426L353.174 187.09C352.99 187.598 352.611 188.012 352.121 188.241C351.631 188.471 351.07 188.497 350.561 188.315V188.315Z" fill="#4A405F"/>
<path d="M338.373 246.705L343.934 246.704L346.58 225.299L338.371 225.299L338.373 246.705Z" fill="#FFB8B8"/>
<path d="M354.661 251.857L337.181 251.858L337.18 245.119L347.907 245.118C349.698 245.118 351.416 245.828 352.683 247.092C353.949 248.356 354.661 250.07 354.661 251.857V251.857L354.661 251.857Z" fill="#2F2E41"/>
<path d="M324.627 239.536L329.177 242.727L343.681 226.736L336.966 222.026L324.627 239.536Z" fill="#FFB8B8"/>
<path d="M334.432 252.004L320.133 241.972L324.017 236.459L332.792 242.615C334.257 243.643 335.253 245.21 335.561 246.97C335.868 248.731 335.462 250.542 334.432 252.004V252.004L334.432 252.004Z" fill="#2F2E41"/>
<path d="M350.543 208.145C350.543 208.145 364.422 206.511 361.931 215.498C359.44 224.485 331.68 232.246 331.68 232.246L350.543 208.145Z" fill="#FFB8B8"/>
<path d="M340.989 162.29C347.143 162.29 352.132 157.312 352.132 151.172C352.132 145.032 347.143 140.054 340.989 140.054C334.835 140.054 329.847 145.032 329.847 151.172C329.847 157.312 334.835 162.29 340.989 162.29Z" fill="#FFB8B8"/>
<path d="M305.455 230.406C299.115 223.04 296.896 211.734 307.007 202.331C309.504 200.066 312.332 198.193 315.393 196.775L323.542 174.036C324.388 171.661 325.94 169.6 327.991 168.129C330.041 166.657 332.493 165.844 335.018 165.799C337.47 165.693 339.895 166.348 341.959 167.672C344.023 168.997 345.626 170.927 346.547 173.197C347.542 175.506 347.656 178.099 346.867 180.486C344.441 188.024 341.256 195.297 337.359 202.193L337.78 205.557L358.378 207.383L358.186 207.695C358.086 207.857 348.005 223.183 335.108 233.355C330.699 236.833 326.139 238.275 321.835 238.275C315.31 238.274 309.374 234.959 305.455 230.406Z" fill="#4A405F"/>
<path d="M303.511 154.66C305.482 152.316 306.328 149.25 307.008 146.267C308.084 141.546 308.917 136.665 311.308 132.452C313.699 128.239 318.093 124.749 322.938 125.014C327.755 125.278 331.649 129.145 333.717 133.545C334.217 133.351 334.753 133.264 335.289 133.29C335.826 133.316 336.351 133.454 336.83 133.695C338.32 134.509 338.877 136.823 337.637 137.981C338.942 137.362 340.362 137.023 341.806 136.987C343.25 136.951 344.686 137.219 346.02 137.773C347.735 138.501 349.215 139.688 350.298 141.202C351.381 142.715 352.024 144.498 352.158 146.353C352.21 147.106 352.106 147.861 351.853 148.573C351.601 149.284 351.204 149.936 350.689 150.488C348.551 152.684 345.527 151.927 342.839 151.367C340.299 150.839 337.206 150.696 335.776 153.11C335.212 154.116 335.054 155.299 335.334 156.417C335.882 158.827 337.671 160.506 339.406 162.113L339.689 162.638C333.564 163.83 326.875 159.656 325.268 153.639C323.661 147.622 327.381 140.68 333.289 138.673C332.896 138.685 332.507 138.592 332.161 138.404C331.816 138.216 331.528 137.939 331.325 137.603C331.123 137.266 331.015 136.881 331.011 136.489C331.008 136.096 331.11 135.71 331.306 135.37C329.67 134.456 327.82 133.995 325.946 134.036C322.894 134.235 320.253 136.403 318.665 139.01C317.077 141.618 316.358 144.645 315.629 147.609C314.901 150.572 314.113 153.592 312.414 156.13C311.238 157.888 309.667 159.347 307.825 160.391C305.983 161.435 303.923 162.035 301.807 162.144C299.692 162.252 297.58 161.865 295.641 161.015C293.702 160.164 291.989 158.873 290.639 157.245C292.773 158.277 295.187 158.583 297.511 158.116C299.836 157.65 301.944 156.435 303.511 154.66Z" fill="#2F2E41"/>
<path d="M385.35 184.958C394.295 184.958 401.547 177.723 401.547 168.798C401.547 159.873 394.295 152.637 385.35 152.637C376.405 152.637 369.154 159.873 369.154 168.798C369.154 177.723 376.405 184.958 385.35 184.958Z" fill="#3B1D6D"/>
<path d="M384.852 177.886C384.787 177.821 384.735 177.744 384.699 177.659C384.664 177.573 384.646 177.482 384.646 177.39V159.503C384.646 159.317 384.72 159.138 384.852 159.007C384.984 158.875 385.163 158.801 385.35 158.801C385.537 158.801 385.716 158.875 385.848 159.007C385.98 159.138 386.054 159.317 386.054 159.503V177.39C386.054 177.529 386.013 177.664 385.936 177.78C385.858 177.895 385.748 177.986 385.62 178.039C385.491 178.092 385.349 178.106 385.213 178.079C385.076 178.052 384.951 177.985 384.852 177.886H384.852Z" fill="white"/>
<path d="M375.889 168.943C375.791 168.845 375.724 168.72 375.697 168.584C375.669 168.447 375.683 168.306 375.737 168.178C375.79 168.049 375.88 167.94 375.996 167.862C376.112 167.785 376.248 167.744 376.387 167.744H394.313C394.5 167.744 394.679 167.818 394.811 167.95C394.943 168.081 395.017 168.26 395.017 168.447C395.017 168.633 394.943 168.812 394.811 168.943C394.679 169.075 394.5 169.149 394.313 169.149H376.387C376.295 169.149 376.203 169.131 376.118 169.096C376.032 169.061 375.955 169.009 375.889 168.943Z" fill="white"/>
<path d="M374.232 179.607C374.115 179.828 374.015 180.059 373.933 180.296L352.186 186.05L348.325 182.19L341.725 187.242L349.623 196.838L375.663 185.733C376.451 186.292 377.391 186.599 378.357 186.613C379.324 186.626 380.272 186.346 381.075 185.808C381.878 185.271 382.498 184.503 382.853 183.605C383.208 182.708 383.28 181.724 383.061 180.784C382.842 179.844 382.341 178.994 381.625 178.345C380.909 177.696 380.013 177.281 379.054 177.153C378.096 177.025 377.121 177.191 376.26 177.63C375.399 178.068 374.691 178.758 374.232 179.607L374.232 179.607Z" fill="#FFB8B8"/>
<path d="M342.988 191.741L330.477 179.257C329.906 178.69 329.454 178.017 329.145 177.275C328.836 176.533 328.676 175.738 328.676 174.934C328.675 174.131 328.833 173.335 329.141 172.593C329.449 171.851 329.9 171.176 330.469 170.608C331.039 170.04 331.715 169.589 332.459 169.282C333.203 168.975 334 168.817 334.805 168.818C335.61 168.819 336.408 168.978 337.151 169.286C337.894 169.595 338.57 170.046 339.138 170.615L351.649 183.099C351.838 183.288 351.989 183.512 352.091 183.759C352.194 184.006 352.247 184.271 352.247 184.539C352.247 184.806 352.194 185.071 352.091 185.318C351.989 185.565 351.838 185.79 351.649 185.979L345.875 191.741C345.492 192.122 344.972 192.336 344.431 192.336C343.89 192.336 343.371 192.122 342.988 191.741V191.741Z" fill="#4A405F"/>
<path d="M319.321 458.499C315.85 460.842 311.829 462.121 307.708 462.19C303.587 462.259 299.53 461.116 295.99 458.89C296.613 457.668 297.402 456.548 298.332 455.567C299.767 454.046 301.514 452.892 303.438 452.194C305.362 451.496 307.412 451.273 309.431 451.541C311.45 451.809 313.383 452.562 315.083 453.741C316.783 454.92 318.204 456.495 319.236 458.344C319.264 458.394 319.294 458.446 319.321 458.499Z" fill="#3B1D6D"/>
<path d="M306.758 446.947C312.705 446.947 317.526 442.129 317.526 436.186C317.526 430.242 312.705 425.424 306.758 425.424C300.811 425.424 295.99 430.242 295.99 436.186C295.99 442.129 300.811 446.947 306.758 446.947Z" fill="#2F2E41"/>
<path d="M314.994 443.545C317.134 439.632 315.695 434.727 311.78 432.588C307.865 430.449 302.956 431.887 300.816 435.8C298.675 439.712 300.114 444.618 304.03 446.757C307.945 448.896 312.854 447.458 314.994 443.545Z" fill="#FFB8B8"/>
<path d="M299.579 434.352C301.367 435.659 303.489 436.354 305.66 436.345C304.886 436.915 304.004 437.3 303.076 437.473C305.963 438.13 308.946 438.148 311.84 437.525C312.483 437.416 313.104 437.19 313.675 436.857C313.959 436.688 314.207 436.458 314.402 436.182C314.597 435.905 314.735 435.588 314.807 435.25C314.999 434.085 314.143 433.027 313.254 432.313C311.892 431.238 310.322 430.497 308.657 430.144C306.992 429.791 305.274 429.835 303.627 430.273C302.551 430.568 301.474 431.066 300.775 431.982C300.077 432.898 299.87 434.31 300.535 435.254L299.579 434.352Z" fill="#2F2E41"/>
<path d="M308.097 462.193C302.808 462.191 297.696 460.283 293.7 456.82C289.704 453.356 287.091 448.569 286.341 443.336C285.591 438.103 286.755 432.775 289.617 428.33C292.48 423.885 296.851 420.62 301.928 419.135C307.004 417.65 312.446 418.044 317.256 420.244C322.066 422.445 325.92 426.304 328.112 431.115C330.305 435.926 330.688 441.366 329.191 446.436C327.695 451.507 324.42 455.868 319.966 458.72C316.424 460.99 312.305 462.195 308.097 462.193V462.193ZM308.097 418.725C303.844 418.724 299.686 419.985 296.149 422.346C292.612 424.707 289.856 428.064 288.228 431.991C286.6 435.918 286.174 440.24 287.003 444.409C287.833 448.578 289.881 452.408 292.889 455.414C295.897 458.419 299.729 460.466 303.9 461.295C308.072 462.125 312.396 461.699 316.326 460.072C320.256 458.445 323.614 455.69 325.977 452.155C328.34 448.621 329.601 444.465 329.601 440.215C329.594 434.517 327.327 429.055 323.295 425.026C319.264 420.997 313.798 418.731 308.097 418.725V418.725Z" fill="#3F3D56"/>
<path d="M512.252 386.192C511.865 386.388 511.472 386.574 511.072 386.749C510.708 386.909 510.338 387.059 509.962 387.2C509.825 387.251 509.685 387.301 509.546 387.352C508.441 387.741 507.307 388.045 506.154 388.261C505.582 388.37 505.004 388.456 504.418 388.518C503.934 388.571 503.445 388.609 502.951 388.632C502.599 388.649 502.248 388.656 501.894 388.656C500.491 388.656 499.092 388.529 497.714 388.276C497.354 388.213 497.003 388.137 496.651 388.055C494.95 387.659 493.303 387.068 491.745 386.296C491.606 386.228 491.466 386.155 491.326 386.085C491.119 385.978 490.917 385.867 490.715 385.751C490.812 385.62 490.917 385.491 491.024 385.365C492.191 383.96 493.65 382.81 495.306 381.989C496.961 381.169 498.776 380.696 500.632 380.602C502.487 380.508 504.343 380.796 506.077 381.445C507.811 382.095 509.385 383.092 510.695 384.372C511.15 384.816 511.572 385.29 511.957 385.792C512.059 385.923 512.157 386.056 512.252 386.192Z" fill="#3B1D6D"/>
<path d="M501.932 375.204C508.127 375.204 513.149 370.386 513.149 364.443C513.149 358.499 508.127 353.681 501.932 353.681C495.737 353.681 490.715 358.499 490.715 364.443C490.715 370.386 495.737 375.204 501.932 375.204Z" fill="#2F2E41"/>
<path d="M504.818 375.722C508.708 373.597 510.137 368.724 508.011 364.837C505.885 360.95 501.008 359.521 497.119 361.646C493.23 363.771 491.8 368.644 493.926 372.531C496.052 376.418 500.929 377.847 504.818 375.722Z" fill="#A0616A"/>
<path d="M509.56 363.506C507.667 364.813 505.42 365.508 503.121 365.499C503.941 366.069 504.875 366.453 505.857 366.627C502.801 367.284 499.642 367.301 496.578 366.679C495.897 366.57 495.24 366.344 494.635 366.011C494.334 365.842 494.072 365.612 493.865 365.335C493.658 365.058 493.512 364.741 493.436 364.404C493.233 363.239 494.139 362.18 495.081 361.467C496.523 360.391 498.185 359.65 499.948 359.297C501.711 358.945 503.531 358.989 505.274 359.426C506.413 359.721 507.554 360.22 508.293 361.136C509.033 362.052 509.252 363.464 508.548 364.407L509.56 363.506Z" fill="#2F2E41"/>
<path d="M501.483 344.713C496.591 344.713 491.832 346.279 487.933 349.173C484.033 352.067 481.207 356.13 479.885 360.743C478.562 365.356 478.816 370.267 480.608 374.726C482.399 379.184 485.63 382.947 489.808 385.441L489.952 385.524C490.072 385.595 490.192 385.663 490.311 385.729C490.513 385.846 490.715 385.958 490.922 386.066C491.062 386.137 491.201 386.21 491.341 386.278C492.898 387.057 494.544 387.651 496.244 388.051C496.595 388.134 496.947 388.209 497.306 388.273C498.683 388.528 500.082 388.657 501.483 388.656C501.837 388.656 502.189 388.649 502.54 388.632C503.034 388.61 503.522 388.571 504.006 388.517C504.592 388.453 505.17 388.367 505.741 388.258C506.894 388.041 508.027 387.735 509.131 387.343C509.27 387.291 509.41 387.24 509.547 387.189C509.923 387.047 510.293 386.896 510.656 386.735C511.055 386.559 511.448 386.372 511.835 386.173C515.716 384.183 518.923 381.132 521.068 377.392C521.078 377.372 521.091 377.353 521.101 377.333C522.245 375.322 523.057 373.146 523.506 370.886C524.137 367.704 524.041 364.426 523.226 361.284C522.411 358.143 520.898 355.217 518.793 352.716C516.689 350.215 514.045 348.201 511.053 346.817C508.06 345.434 504.793 344.715 501.483 344.713H501.483ZM520.692 377.048C520.672 377.082 520.654 377.116 520.634 377.148C518.532 380.833 515.37 383.832 511.541 385.77C511.16 385.966 510.772 386.149 510.377 386.32C510.051 386.464 509.717 386.6 509.38 386.727C509.238 386.781 509.093 386.835 508.949 386.884C507.995 387.225 507.018 387.499 506.025 387.704C505.288 387.858 504.543 387.972 503.794 388.048C503.333 388.097 502.864 388.131 502.393 388.148C502.092 388.16 501.788 388.168 501.483 388.168C500.127 388.169 498.773 388.046 497.44 387.799C496.63 387.653 495.828 387.46 495.04 387.223C493.839 386.86 492.673 386.397 491.553 385.839C491.423 385.773 491.294 385.707 491.166 385.639C490.984 385.543 490.8 385.446 490.62 385.341C490.486 385.267 490.351 385.189 490.219 385.111C490.142 385.067 490.065 385.021 489.987 384.975C486.324 382.771 483.402 379.563 481.584 375.749C479.765 371.934 479.131 367.68 479.758 363.515C480.386 359.35 482.248 355.457 485.114 352.32C487.98 349.182 491.723 346.937 495.88 345.864C500.036 344.791 504.423 344.937 508.496 346.283C512.569 347.63 516.149 350.118 518.791 353.438C521.433 356.759 523.022 360.767 523.36 364.964C523.698 369.161 522.77 373.362 520.692 377.048H520.692Z" fill="#3F3D56"/>
<path d="M496.463 354.515C496.351 353.271 494.913 352.504 493.788 352.88C492.663 353.256 491.925 354.457 491.701 355.684C491.594 356.201 491.584 356.736 491.672 357.257C491.759 357.778 491.943 358.276 492.213 358.721C492.782 359.588 493.827 360.13 494.801 359.91C495.914 359.658 496.684 358.507 496.905 357.324C497.125 356.141 496.907 354.922 496.688 353.739L496.463 354.515Z" fill="#2F2E41"/>
<path d="M513.424 356.092C513.293 355.003 511.615 354.333 510.303 354.662C508.991 354.991 508.129 356.041 507.869 357.115C507.743 357.568 507.731 358.035 507.834 358.491C507.936 358.947 508.151 359.383 508.466 359.773C509.129 360.532 510.348 361.005 511.485 360.813C512.783 360.593 513.682 359.585 513.939 358.55C514.197 357.515 513.941 356.448 513.686 355.413L513.424 356.092Z" fill="#2F2E41"/>
<path d="M333.818 425.348C333.61 425.268 333.432 425.126 333.306 424.941C333.18 424.757 333.114 424.538 333.114 424.315V412.735C333.114 412.343 332.959 411.967 332.683 411.69C332.407 411.413 332.033 411.257 331.643 411.257H329.282C328.306 411.256 327.371 410.866 326.681 410.173C325.992 409.48 325.604 408.541 325.603 407.561V384.28C325.604 383.3 325.992 382.361 326.681 381.668C327.371 380.976 328.306 380.586 329.282 380.585H412.556C413.531 380.586 414.467 380.976 415.156 381.668C415.846 382.361 416.234 383.3 416.235 384.28V407.561C416.234 408.541 415.846 409.48 415.156 410.173C414.467 410.866 413.531 411.256 412.556 411.257H348.28C348.076 411.257 347.874 411.3 347.688 411.382C347.501 411.465 347.333 411.585 347.195 411.736L335.032 425.064C334.929 425.177 334.804 425.268 334.664 425.33C334.525 425.392 334.374 425.424 334.221 425.424C334.083 425.424 333.946 425.398 333.818 425.348V425.348Z" fill="white"/>
<path d="M333.818 425.348C333.61 425.268 333.432 425.126 333.306 424.941C333.18 424.757 333.114 424.538 333.114 424.315V412.735C333.114 412.343 332.959 411.967 332.683 411.69C332.407 411.413 332.033 411.257 331.643 411.257H329.282C328.306 411.256 327.371 410.866 326.681 410.173C325.992 409.48 325.604 408.541 325.603 407.561V384.28C325.604 383.3 325.992 382.361 326.681 381.668C327.371 380.976 328.306 380.586 329.282 380.585H412.556C413.531 380.586 414.467 380.976 415.156 381.668C415.846 382.361 416.234 383.3 416.235 384.28V407.561C416.234 408.541 415.846 409.48 415.156 410.173C414.467 410.866 413.531 411.256 412.556 411.257H348.28C348.076 411.257 347.874 411.3 347.688 411.382C347.501 411.465 347.333 411.585 347.195 411.736L335.032 425.064C334.929 425.177 334.804 425.268 334.664 425.33C334.525 425.392 334.374 425.424 334.221 425.424C334.083 425.424 333.946 425.398 333.818 425.348V425.348ZM329.282 381.077C328.436 381.078 327.626 381.416 327.028 382.016C326.43 382.617 326.094 383.431 326.093 384.28V407.561C326.094 408.411 326.43 409.225 327.028 409.825C327.626 410.426 328.436 410.763 329.282 410.764H331.643C332.163 410.765 332.662 410.973 333.029 411.342C333.397 411.712 333.604 412.213 333.605 412.735V424.315C333.605 424.439 333.642 424.56 333.712 424.663C333.782 424.765 333.881 424.844 333.996 424.889C334.111 424.934 334.237 424.943 334.357 424.915C334.478 424.887 334.587 424.823 334.67 424.731L346.834 411.403C347.018 411.202 347.241 411.042 347.49 410.932C347.739 410.822 348.008 410.765 348.28 410.764H412.556C413.401 410.763 414.212 410.426 414.81 409.825C415.408 409.225 415.744 408.411 415.745 407.561V384.28C415.744 383.431 415.408 382.617 414.81 382.016C414.212 381.416 413.401 381.078 412.556 381.077H329.282Z" fill="#3F3D56"/>
<path d="M335.922 391.346C337.657 391.346 339.063 389.74 339.063 387.759C339.063 385.778 337.657 384.172 335.922 384.172C334.188 384.172 332.781 385.778 332.781 387.759C332.781 389.74 334.188 391.346 335.922 391.346Z" fill="#3B1D6D"/>
<path d="M410.036 405.695H334.495C334.27 405.695 334.048 405.649 333.84 405.559C333.632 405.469 333.443 405.337 333.284 405.17C333.124 405.004 332.998 404.806 332.912 404.588C332.826 404.371 332.781 404.137 332.781 403.901C332.781 403.666 332.826 403.432 332.912 403.215C332.998 402.997 333.124 402.799 333.284 402.632C333.443 402.466 333.632 402.334 333.84 402.244C334.048 402.154 334.27 402.108 334.495 402.108H410.036C410.49 402.108 410.926 402.297 411.247 402.633C411.568 402.969 411.748 403.426 411.748 403.901C411.748 404.377 411.568 404.833 411.247 405.17C410.926 405.506 410.49 405.695 410.036 405.695Z" fill="#635878"/>
<path d="M385.798 398.521H334.508C334.281 398.521 334.057 398.475 333.847 398.385C333.638 398.295 333.447 398.163 333.287 397.996C333.127 397.829 333 397.632 332.913 397.414C332.826 397.196 332.781 396.963 332.781 396.727C332.781 396.491 332.826 396.258 332.913 396.04C333 395.822 333.127 395.625 333.287 395.458C333.447 395.291 333.638 395.159 333.847 395.069C334.057 394.979 334.281 394.933 334.508 394.933H385.798C386.255 394.934 386.693 395.123 387.016 395.46C387.338 395.796 387.52 396.252 387.52 396.727C387.52 397.202 387.338 397.658 387.016 397.995C386.693 398.331 386.255 398.52 385.798 398.521V398.521Z" fill="#635878"/>
<path d="M467.739 343.817C467.586 343.816 467.436 343.785 467.296 343.724C467.156 343.663 467.031 343.574 466.929 343.463L454.765 330.402C454.627 330.254 454.459 330.136 454.273 330.055C454.086 329.974 453.884 329.933 453.68 329.932H389.404C388.429 329.931 387.494 329.549 386.804 328.87C386.114 328.192 385.726 327.271 385.725 326.311V303.495C385.726 302.535 386.114 301.615 386.804 300.936C387.494 300.257 388.429 299.875 389.404 299.874H472.678C473.654 299.875 474.589 300.257 475.279 300.936C475.969 301.615 476.356 302.535 476.358 303.495V326.311C476.356 327.271 475.969 328.192 475.279 328.87C474.589 329.549 473.654 329.931 472.678 329.932H470.318C469.927 329.933 469.553 330.086 469.277 330.357C469.001 330.629 468.846 330.997 468.846 331.381V342.729C468.847 342.948 468.78 343.162 468.654 343.343C468.529 343.524 468.35 343.663 468.142 343.741C468.014 343.791 467.877 343.816 467.739 343.817V343.817Z" fill="white"/>
<path d="M467.739 343.817C467.586 343.816 467.436 343.785 467.296 343.724C467.156 343.663 467.031 343.574 466.929 343.463L454.765 330.402C454.627 330.254 454.459 330.136 454.273 330.055C454.086 329.974 453.884 329.933 453.68 329.932H389.404C388.429 329.931 387.494 329.549 386.804 328.87C386.114 328.192 385.726 327.271 385.725 326.311V303.495C385.726 302.535 386.114 301.615 386.804 300.936C387.494 300.257 388.429 299.875 389.404 299.874H472.678C473.654 299.875 474.589 300.257 475.279 300.936C475.969 301.615 476.356 302.535 476.358 303.495V326.311C476.356 327.271 475.969 328.192 475.279 328.87C474.589 329.549 473.654 329.931 472.678 329.932H470.318C469.927 329.933 469.553 330.086 469.277 330.357C469.001 330.629 468.846 330.997 468.846 331.381V342.729C468.847 342.948 468.78 343.162 468.654 343.343C468.529 343.524 468.35 343.663 468.142 343.741C468.014 343.791 467.877 343.816 467.739 343.817V343.817ZM389.404 300.356C388.559 300.357 387.748 300.688 387.15 301.277C386.553 301.865 386.216 302.663 386.215 303.495V326.311C386.216 327.143 386.553 327.941 387.15 328.529C387.748 329.118 388.559 329.449 389.404 329.45H453.68C453.952 329.45 454.221 329.506 454.47 329.614C454.719 329.721 454.942 329.879 455.126 330.076L467.29 343.137C467.373 343.227 467.483 343.29 467.603 343.317C467.723 343.345 467.849 343.336 467.964 343.292C468.08 343.248 468.179 343.17 468.248 343.07C468.318 342.97 468.355 342.851 468.356 342.729V331.381C468.356 330.869 468.563 330.378 468.931 330.016C469.299 329.654 469.797 329.45 470.318 329.45H472.678C473.524 329.449 474.334 329.118 474.932 328.529C475.53 327.941 475.866 327.143 475.867 326.311V303.495C475.866 302.663 475.53 301.865 474.932 301.277C474.334 300.688 473.524 300.357 472.678 300.356H389.404Z" fill="#3F3D56"/>
<path d="M395.147 310.635C396.882 310.635 398.288 309.029 398.288 307.048C398.288 305.067 396.882 303.461 395.147 303.461C393.413 303.461 392.007 305.067 392.007 307.048C392.007 309.029 393.413 310.635 395.147 310.635Z" fill="#3B1D6D"/>
<path d="M469.264 324.984H393.721C393.496 324.984 393.273 324.938 393.065 324.848C392.857 324.758 392.668 324.626 392.509 324.459C392.35 324.293 392.223 324.095 392.137 323.877C392.051 323.659 392.007 323.426 392.007 323.19C392.007 322.955 392.051 322.721 392.137 322.504C392.223 322.286 392.35 322.088 392.509 321.921C392.668 321.755 392.857 321.623 393.065 321.533C393.273 321.443 393.496 321.397 393.721 321.397H469.264C469.717 321.397 470.152 321.587 470.473 321.923C470.793 322.259 470.973 322.715 470.973 323.19C470.973 323.666 470.793 324.122 470.473 324.458C470.152 324.794 469.717 324.983 469.264 324.984V324.984Z" fill="#635878"/>
<path d="M445.021 317.81H393.733C393.506 317.81 393.282 317.764 393.072 317.674C392.863 317.584 392.673 317.452 392.512 317.285C392.352 317.118 392.225 316.921 392.138 316.703C392.051 316.485 392.007 316.252 392.007 316.016C392.007 315.78 392.051 315.547 392.138 315.329C392.225 315.111 392.352 314.914 392.512 314.747C392.673 314.58 392.863 314.448 393.072 314.358C393.282 314.268 393.506 314.222 393.733 314.222H445.021C445.478 314.222 445.917 314.411 446.24 314.748C446.563 315.084 446.745 315.54 446.745 316.016C446.745 316.492 446.563 316.948 446.24 317.284C445.917 317.621 445.478 317.81 445.021 317.81Z" fill="#635878"/>
</g>
<defs>
<clipPath id="clip0">
<rect width="542" height="391" fill="white" transform="translate(191 125)"/>
</clipPath>
</defs>
</svg>
