<svg width="732" height="605" viewBox="0 0 732 605" fill="none" xmlns="http://www.w3.org/2000/svg">
<path d="M408.771 234.216L377.476 238.663C335.112 244.684 300.784 296.285 305.991 332.924L315.97 403.148L217.745 533.915L201.474 419.419L125.144 430.267C83.162 436.233 43.9319 406.765 37.9659 364.783L10.8474 173.957C4.88133 131.975 34.3487 92.7452 76.3305 86.7792L305.322 54.237C347.304 48.2709 386.534 77.7383 392.5 119.72L408.771 234.216ZM414.195 272.381L643.186 239.839C685.168 233.873 724.398 263.34 730.364 305.322L757.483 496.148C763.449 538.13 733.981 577.36 692 583.326L615.669 594.174L631.94 708.669L501.173 610.445L463.008 615.869C421.026 621.835 381.796 592.367 375.83 550.385L348.712 359.559C342.746 317.577 372.213 278.347 414.195 272.381Z" fill="#523484" fill-opacity="0.57"/>
<g clip-path="url(#clip0)">
<path d="M513.25 402.169C513.695 401.497 514.282 400.931 514.97 400.51C515.657 400.089 516.429 399.823 517.231 399.732C518.033 399.641 518.844 399.727 519.609 399.983C520.374 400.239 521.074 400.659 521.658 401.213L539.086 392.238L538.002 402.349L521.619 409.322C520.62 410.24 519.318 410.761 517.96 410.785C516.602 410.81 515.282 410.336 514.25 409.454C513.219 408.573 512.547 407.344 512.363 406.001C512.179 404.658 512.494 403.295 513.25 402.169H513.25Z" fill="#A0616A"/>
<path d="M528.738 406.238C529.053 406.383 529.396 406.459 529.743 406.463C530.09 406.467 530.433 406.397 530.752 406.26L547.305 399.095C552.965 396.646 557.541 392.229 560.181 386.666L568.884 368.337C569.526 367.514 569.999 366.572 570.277 365.566C570.554 364.561 570.63 363.51 570.5 362.475C570.37 361.44 570.037 360.44 569.519 359.533C569.002 358.627 568.311 357.831 567.485 357.191C566.659 356.551 565.715 356.08 564.706 355.805C563.698 355.529 562.645 355.455 561.607 355.586C560.57 355.717 559.569 356.05 558.661 356.568C557.753 357.085 556.956 357.776 556.316 358.601L541.019 386.919L526.894 397.565C526.49 397.871 526.189 398.294 526.034 398.776C525.878 399.258 525.874 399.776 526.023 400.26L527.41 404.728C527.558 405.207 527.85 405.629 528.246 405.939C528.398 406.058 528.563 406.158 528.738 406.238Z" fill="#4A405F"/>
<path d="M569.267 346.782C561.822 346.782 555.787 340.76 555.787 333.332C555.787 325.904 561.822 319.883 569.267 319.883C576.711 319.883 582.746 325.904 582.746 333.332C582.746 340.76 576.711 346.782 569.267 346.782Z" fill="#A0616A"/>
<path d="M563.807 509.766L557.079 509.766L553.878 483.871L563.808 483.871L563.807 509.766Z" fill="#A0616A"/>
<path d="M544.102 515.999L565.249 516L565.249 507.848L552.273 507.847C550.106 507.847 548.028 508.706 546.496 510.235C544.963 511.764 544.103 513.837 544.102 515.999L544.102 515.999Z" fill="#2F2E41"/>
<path d="M585.759 509.766L579.031 509.766L575.83 483.871L585.761 483.871L585.759 509.766Z" fill="#A0616A"/>
<path d="M566.055 515.999L587.201 516L587.201 507.848L574.225 507.847C572.059 507.847 569.98 508.706 568.448 510.235C566.916 511.764 566.055 513.837 566.055 515.999L566.055 515.999Z" fill="#2F2E41"/>
<path d="M588.109 502.354C588.341 502.09 588.513 501.779 588.615 501.443C588.717 501.107 588.745 500.753 588.699 500.405L576.919 412.25L547.651 417.209L544.528 415.339L552.605 498.982C552.672 499.546 552.933 500.071 553.342 500.466C553.752 500.862 554.285 501.104 554.853 501.152L563.715 501.889C564.068 501.919 564.422 501.872 564.755 501.753C565.088 501.634 565.391 501.445 565.644 501.199C565.897 500.952 566.095 500.655 566.223 500.326C566.351 499.997 566.406 499.645 566.386 499.292L564.092 459.459C564.088 459.391 564.109 459.325 564.151 459.272C564.194 459.219 564.254 459.183 564.321 459.172C564.388 459.162 564.457 459.176 564.514 459.213C564.571 459.249 564.613 459.306 564.63 459.371L575.982 501.372C576.124 501.895 576.434 502.357 576.865 502.686C577.296 503.016 577.823 503.194 578.366 503.195H586.251C586.603 503.195 586.951 503.12 587.271 502.975C587.592 502.83 587.877 502.618 588.109 502.354Z" fill="#2F2E41"/>
<path d="M567.84 418.421C568.176 418.117 568.608 417.941 569.06 417.922C569.513 417.903 569.958 418.043 570.318 418.318L576.17 422.859C576.488 423.107 576.863 423.273 577.26 423.342C577.658 423.412 578.067 423.383 578.451 423.259C578.835 423.134 579.183 422.917 579.463 422.627C579.743 422.337 579.948 421.983 580.059 421.596C582.93 411.566 589.432 386.321 587.83 368.552C586.922 358.48 578.206 350.826 568.4 351.468C561.696 351.914 557.285 355.773 555.291 362.937C550.394 380.527 545.012 412.792 543.983 419.082C543.902 419.57 543.971 420.071 544.18 420.52C544.389 420.968 544.729 421.343 545.156 421.595C547.924 423.253 551.088 424.142 554.317 424.167C558.224 424.167 562.908 422.81 567.84 418.421Z" fill="#4A405F"/>
<path d="M565.632 424.678C565.567 423.876 565.678 423.069 565.959 422.314C566.24 421.559 566.683 420.875 567.258 420.31C567.832 419.745 568.524 419.312 569.284 419.042C570.044 418.773 570.854 418.673 571.657 418.749L579.819 400.956L585.22 409.579L576.642 425.154C576.423 426.492 575.721 427.703 574.667 428.558C573.614 429.414 572.282 429.854 570.925 429.795C569.568 429.736 568.28 429.183 567.304 428.24C566.329 427.297 565.734 426.029 565.632 424.678Z" fill="#A0616A"/>
<path d="M580.336 418.344C580.673 418.263 580.99 418.113 581.265 417.902C581.541 417.691 581.768 417.425 581.934 417.121L590.528 401.29C593.467 395.878 594.335 389.585 592.972 383.581L588.484 363.801C588.48 362.757 588.27 361.725 587.866 360.763C587.461 359.801 586.871 358.928 586.129 358.194C585.386 357.459 584.506 356.878 583.538 356.483C582.571 356.089 581.535 355.888 580.489 355.893C579.444 355.898 578.41 356.109 577.446 356.513C576.482 356.917 575.607 357.507 574.872 358.249C574.137 358.99 573.555 359.869 573.161 360.835C572.766 361.801 572.566 362.835 572.572 363.878L578.05 395.58L573.52 412.654C573.392 413.144 573.417 413.662 573.592 414.137C573.768 414.612 574.085 415.022 574.502 415.311L578.356 417.973C578.77 418.258 579.261 418.411 579.763 418.411C579.956 418.411 580.148 418.389 580.336 418.344Z" fill="#4A405F"/>
<path opacity="0.2" d="M573.666 377.248L578.605 398.056L571.47 415.579L576.41 398.604L573.666 377.248Z" fill="black"/>
<path d="M576.959 344.392C578.158 344.414 579.349 344.199 580.465 343.759C580.955 343.57 581.465 343.415 581.954 343.226C586.28 341.559 589.129 336.962 589.231 332.337C589.334 327.711 586.933 323.221 583.368 320.262C579.803 317.303 575.185 315.784 570.561 315.433C565.58 315.055 559.972 316.315 557.189 320.453C556.448 321.555 555.93 322.892 556.369 324.222C556.501 324.623 556.735 324.983 557.05 325.265C558.293 326.369 559.532 325.539 560.799 325.466C562.541 325.365 564.105 326.772 564.667 328.419C565.229 330.067 564.982 331.881 564.528 333.562C564.182 334.573 563.964 335.623 563.879 336.688C563.842 337.223 563.943 337.757 564.171 338.242C564.4 338.726 564.748 339.144 565.184 339.456C566.272 340.113 567.702 339.733 568.79 339.078C569.879 338.422 570.82 337.511 571.996 337.029C573.173 336.547 574.753 336.654 575.437 337.723C575.655 338.112 575.802 338.536 575.872 338.976C576.486 341.766 576.345 341.602 576.959 344.392L576.959 344.392Z" fill="#2F2E41"/>
<path d="M177.967 251.21H511.096C512.365 251.211 513.582 251.715 514.479 252.61C515.376 253.505 515.881 254.719 515.882 255.985V481.223C515.881 482.489 515.376 483.703 514.479 484.599C513.582 485.494 512.365 485.997 511.096 485.998H177.967C177.275 485.998 176.592 485.849 175.963 485.559C175.335 485.27 174.777 484.848 174.329 484.323C174.291 484.282 174.256 484.238 174.224 484.191C173.939 483.843 173.707 483.453 173.538 483.036C173.297 482.462 173.174 481.846 173.176 481.223V341.011H174.543V481.223C174.542 481.889 174.739 482.541 175.108 483.096C175.436 483.585 175.881 483.984 176.403 484.257C176.887 484.506 177.423 484.636 177.967 484.635H511.096C512.003 484.634 512.872 484.274 513.513 483.634C514.154 482.995 514.514 482.128 514.516 481.223V255.985C514.514 255.081 514.154 254.214 513.513 253.574C512.872 252.935 512.003 252.575 511.096 252.574H177.967C177.06 252.574 176.19 252.933 175.548 253.573C174.905 254.212 174.544 255.08 174.543 255.985V286.251H173.176V255.985C173.178 254.718 173.683 253.504 174.581 252.609C175.48 251.713 176.697 251.21 177.967 251.21Z" fill="white"/>
<path d="M173.863 270.35H515.201V271.715H173.863V270.35Z" fill="white"/>
<path d="M503.572 265.545C501.305 265.545 499.468 263.712 499.468 261.45C499.468 259.189 501.305 257.355 503.572 257.355C505.839 257.355 507.676 259.189 507.676 261.45C507.676 263.712 505.839 265.545 503.572 265.545Z" fill="#CCCCCC"/>
<path d="M491.772 265.545C489.506 265.545 487.668 263.712 487.668 261.45C487.668 259.189 489.506 257.355 491.772 257.355C494.039 257.355 495.877 259.189 495.877 261.45C495.877 263.712 494.039 265.545 491.772 265.545Z" fill="#CCCCCC"/>
<path d="M479.973 265.545C477.706 265.545 475.868 263.712 475.868 261.45C475.868 259.189 477.706 257.355 479.973 257.355C482.239 257.355 484.077 259.189 484.077 261.45C484.077 263.712 482.239 265.545 479.973 265.545Z" fill="#CCCCCC"/>
<path d="M91.4863 326.911H188.077C189.242 326.911 190.358 326.45 191.182 325.628C192.005 324.807 192.468 323.692 192.468 322.53C192.468 321.369 192.005 320.254 191.182 319.433C190.358 318.611 189.242 318.15 188.077 318.15H91.4863C90.3219 318.15 89.2051 318.611 88.3818 319.433C87.5584 320.254 87.0958 321.369 87.0958 322.53C87.0958 323.692 87.5584 324.807 88.3818 325.628C89.2051 326.45 90.3219 326.911 91.4863 326.911Z" fill="#CCCCCC"/>
<path d="M154.6 308.293H188.077C189.242 308.293 190.358 307.831 191.182 307.01C192.005 306.188 192.468 305.074 192.468 303.912C192.468 302.75 192.005 301.636 191.182 300.814C190.358 299.993 189.242 299.531 188.077 299.531H154.6C153.435 299.531 152.319 299.993 151.495 300.814C150.672 301.636 150.209 302.75 150.209 303.912C150.209 305.074 150.672 306.188 151.495 307.01C152.319 307.831 153.435 308.293 154.6 308.293Z" fill="#CCCCCC"/>
<path d="M231.827 332.249C221.521 332.249 213.167 323.914 213.167 313.631C213.167 303.348 221.521 295.013 231.827 295.013C242.132 295.013 250.486 303.348 250.486 313.631C250.486 323.914 242.132 332.249 231.827 332.249Z" fill="#3B1D6D"/>
<path d="M81.8044 285.156H255.778C258.251 285.159 260.622 286.141 262.371 287.886C264.12 289.631 265.104 291.997 265.108 294.465V332.797C265.104 335.265 264.12 337.631 262.371 339.376C260.622 341.121 258.251 342.103 255.778 342.106H81.8044C79.331 342.103 76.96 341.121 75.2111 339.376C73.4621 337.631 72.4781 335.265 72.4746 332.797V294.465C72.4781 291.997 73.4621 289.631 75.2111 287.886C76.96 286.141 79.331 285.159 81.8044 285.156ZM73.5722 332.797C73.5748 334.975 74.443 337.062 75.9863 338.602C77.5295 340.142 79.6219 341.008 81.8044 341.011H255.778C257.96 341.008 260.053 340.142 261.596 338.602C263.139 337.062 264.007 334.975 264.01 332.797V294.465C264.007 292.287 263.139 290.2 261.596 288.66C260.053 287.12 257.96 286.254 255.778 286.251H81.8044C79.6219 286.254 77.5295 287.12 75.9863 288.66C74.443 290.2 73.5748 292.287 73.5722 294.465V332.797Z" fill="white"/>
<path d="M73.5721 300.489C66.6008 300.489 60.9495 294.85 60.9495 287.894C60.9495 280.938 66.6008 275.299 73.5721 275.299C80.5435 275.299 86.1948 280.938 86.1948 287.894C86.1948 294.85 80.5435 300.489 73.5721 300.489Z" fill="#3B1D6D"/>
<path d="M73.9602 294.977C74.0112 294.926 74.0517 294.866 74.0793 294.799C74.1069 294.733 74.121 294.662 74.1209 294.59V280.65C74.1209 280.505 74.0631 280.366 73.9602 280.263C73.8573 280.16 73.7177 280.103 73.5722 280.103C73.4266 280.103 73.2871 280.16 73.1842 280.263C73.0812 280.366 73.0234 280.505 73.0234 280.65V294.59C73.0234 294.698 73.0556 294.804 73.1159 294.894C73.1762 294.984 73.2619 295.054 73.3622 295.096C73.4624 295.137 73.5728 295.148 73.6792 295.127C73.7857 295.106 73.8834 295.054 73.9602 294.977Z" fill="white"/>
<path d="M80.9454 288.007C81.0221 287.931 81.0744 287.833 81.0956 287.727C81.1167 287.621 81.1058 287.511 81.0643 287.411C81.0227 287.31 80.9524 287.225 80.8621 287.165C80.7719 287.105 80.6659 287.073 80.5573 287.073H66.5869C66.4414 287.073 66.3018 287.13 66.1989 287.233C66.096 287.336 66.0381 287.475 66.0381 287.62C66.0381 287.765 66.096 287.905 66.1989 288.007C66.3018 288.11 66.4414 288.168 66.5869 288.168H80.5573C80.6294 288.168 80.7008 288.154 80.7674 288.126C80.834 288.099 80.8945 288.058 80.9454 288.007Z" fill="white"/>
<path d="M58.4615 455.298H84.8098C84.8098 456.054 111.965 456.667 111.965 456.667C112.391 456.987 112.78 457.355 113.123 457.762C114.154 458.99 114.718 460.541 114.715 462.143V463.238C114.714 465.053 113.991 466.794 112.705 468.078C111.418 469.361 109.674 470.082 107.855 470.083H58.4615C56.6425 470.082 54.8986 469.36 53.6124 468.077C52.3262 466.793 51.6029 465.053 51.6013 463.238V462.143C51.6038 460.328 52.3274 458.589 53.6134 457.306C54.8994 456.023 56.6428 455.301 58.4615 455.298Z" fill="#3F3D56"/>
<path d="M79.3189 469.811H86.4535V515.809H79.3189V469.811Z" fill="#3F3D56"/>
<path d="M59.0129 515.559C59.0129 516.329 69.8243 515.857 83.1607 515.857C96.4972 515.857 107.308 516.329 107.308 515.559C107.308 514.79 96.4972 508.691 83.1607 508.691C69.8243 508.691 59.0129 514.79 59.0129 515.559Z" fill="#3F3D56"/>
<path d="M80.5973 393.656C72.1105 393.656 65.2306 386.791 65.2306 378.323C65.2306 369.855 72.1105 362.991 80.5973 362.991C89.0841 362.991 95.9641 369.855 95.9641 378.323C95.9641 386.791 89.0841 393.656 80.5973 393.656Z" fill="#2F2E41"/>
<path d="M118.839 509.509L125.567 509.509L128.768 483.614L118.837 483.615L118.839 509.509Z" fill="#FFB8B8"/>
<path d="M130.373 507.591H117.397V515.743H138.543C138.543 513.581 137.682 511.507 136.15 509.978C134.618 508.45 132.54 507.591 130.373 507.591Z" fill="#2F2E41"/>
<path d="M129.342 505.762L135.761 503.752L131.046 478.089L121.571 481.056L129.342 505.762Z" fill="#FFB8B8"/>
<path d="M139.771 500.486L127.39 504.363L129.837 512.141L150.013 505.823C149.364 503.761 147.92 502.039 146 501.038C144.079 500.038 141.839 499.839 139.771 500.486Z" fill="#2F2E41"/>
<path d="M76.481 450.809C76.6364 449.504 76.9157 448.217 77.3152 446.965L78.572 445.388L81.8429 441.292L81.9855 441.298C82.2272 441.308 83.2315 441.363 84.7845 441.484H84.8011C85.7615 441.56 86.936 441.659 88.2695 441.785C88.6208 441.823 88.9884 441.856 89.3671 441.894V447.611H82.5069C82.1736 447.612 81.8517 447.733 81.6013 447.953C81.3509 448.172 81.1891 448.475 81.1459 448.805C81.1405 448.865 81.1349 448.92 81.1349 448.98C81.1351 449.343 81.2797 449.691 81.5369 449.948C81.7942 450.205 82.1431 450.349 82.5069 450.349H122.351C122.858 450.686 123.346 451.051 123.811 451.444C125.214 452.529 126.226 454.04 126.692 455.749C129.019 465.956 133.261 484.99 134.513 490.581C134.603 491.003 134.583 491.44 134.453 491.851C134.323 492.262 134.088 492.632 133.772 492.925C133.538 493.142 133.264 493.312 132.965 493.423L128.014 495.274C127.811 495.349 127.599 495.399 127.383 495.422C127.356 495.422 127.334 495.428 127.306 495.428C127.255 495.432 127.204 495.434 127.153 495.433C126.652 495.431 126.164 495.278 125.752 494.995C125.34 494.712 125.023 494.311 124.842 493.845L120.935 483.616L114.914 467.845L112.532 461.608C109.772 462.254 86.612 467.369 78.8574 459.127C78.0924 458.315 77.4889 457.366 77.0791 456.329C76.4265 454.567 76.221 452.67 76.481 450.809Z" fill="#2F2E41"/>
<path d="M69.7637 452.299C69.8843 451.811 70.0215 451.308 70.1807 450.798L74.7084 445.125L74.8509 445.131C75.1366 445.147 76.492 445.218 78.572 445.388C80.9318 445.585 84.2303 445.903 87.9348 446.401C88.0444 446.412 88.1596 446.428 88.2695 446.445C88.6318 446.494 88.9994 446.543 89.3671 446.598V447.611H82.5069C82.1735 447.612 81.8517 447.733 81.6013 447.953C81.3509 448.172 81.1891 448.475 81.1459 448.805C81.1405 448.865 81.1349 448.92 81.1349 448.98C81.135 449.343 81.2796 449.691 81.5369 449.948C81.7942 450.205 82.1431 450.349 82.5069 450.349H106.754C107.813 450.694 108.834 451.056 109.81 451.444C114.936 453.471 118.773 456.126 119.557 459.582C119.821 460.743 120.112 462.019 120.419 463.377C121.561 468.425 122.949 474.608 124.206 480.226V480.232C124.464 481.393 124.722 482.521 124.969 483.616C126.017 488.325 126.906 492.317 127.378 494.414C127.389 494.475 127.4 494.529 127.411 494.59V494.601C127.466 495.025 127.413 495.456 127.257 495.855L127.252 495.86V495.866C127.101 496.247 126.855 496.585 126.538 496.846C126.326 497.02 126.087 497.159 125.83 497.256L120.88 499.107C120.604 499.21 120.313 499.264 120.018 499.266C119.606 499.267 119.2 499.163 118.838 498.965C118.32 498.684 117.919 498.228 117.708 497.678L107.05 469.772L105.398 465.441C102.638 466.087 79.4775 471.196 71.7229 462.96C70.1909 461.306 69.3166 459.15 69.2641 456.898C69.21 455.349 69.3783 453.8 69.7637 452.299Z" fill="#2F2E41"/>
<path d="M70.3728 403.99C70.4605 403.886 70.5539 403.782 70.6525 403.683C72.1143 402.15 73.9193 400.984 75.9197 400.28C77.9201 399.577 80.059 399.356 82.1613 399.636C83.9951 399.877 85.8117 400.233 87.6001 400.704C89.9098 401.297 92.0245 402.48 93.7356 404.137C95.0685 405.427 96.1183 406.979 96.8183 408.694C97.5184 410.41 97.8535 412.252 97.8024 414.104C97.7805 414.854 97.7751 415.621 97.7858 416.398C97.7858 416.76 97.7914 417.126 97.7968 417.493H92.3856C92.1508 417.493 91.9167 417.52 91.6886 417.576C91.0282 417.733 90.4402 418.108 90.0191 418.639C89.598 419.17 89.3683 419.828 89.3671 420.505V445.979C88.9994 446.083 88.6318 446.187 88.2695 446.297C88.1542 446.335 88.0444 446.368 87.9347 446.401C87.8085 446.439 87.6823 446.478 87.5615 446.516C86.4475 446.861 85.3591 447.226 84.2962 447.611H82.5069C82.1735 447.612 81.8517 447.733 81.6013 447.953C81.3509 448.172 81.1891 448.475 81.1459 448.805C80.7726 448.953 80.4106 449.101 80.0539 449.249C78.7861 449.774 77.5842 450.3 76.481 450.809C74.9937 451.488 73.671 452.134 72.5624 452.698C72.2138 452.876 71.8286 452.969 71.4374 452.972C70.9237 452.97 70.4239 452.806 70.0105 452.501C69.9247 452.438 69.8423 452.37 69.7637 452.299C69.4699 452.024 69.2479 451.682 69.1169 451.302C68.9858 450.922 68.9497 450.516 69.0117 450.119C69.5783 445.818 69.7436 441.473 69.5056 437.141C69.352 433.5 69.0227 429.765 68.5945 426.156C68.364 424.201 68.1062 422.285 67.8372 420.439C67.5791 418.676 67.3047 416.984 67.0359 415.385C66.6831 413.357 66.8004 411.276 67.3788 409.301C67.9572 407.326 68.9814 405.509 70.3728 403.99Z" fill="#3B1D6D"/>
<path d="M92.8685 404.439C93.15 404.318 93.4398 404.217 93.7356 404.137C95.1981 403.744 96.7535 403.889 98.1178 404.546C99.482 405.202 100.564 406.327 101.167 407.713L104.937 416.398L105.409 417.493H92.3855C92.1507 417.493 91.9167 417.52 91.6885 417.575L91.2496 416.562L89.5812 412.718C88.9185 411.185 88.8924 409.452 89.5087 407.9C90.125 406.348 91.3333 405.103 92.8685 404.439Z" fill="#3B1D6D"/>
<path d="M81.1591 395.36C73.7146 395.36 67.6797 389.339 67.6797 381.911C67.6797 374.483 73.7146 368.461 81.1591 368.461C88.6035 368.461 94.6384 374.483 94.6384 381.911C94.6384 389.339 88.6035 395.36 81.1591 395.36Z" fill="#FFB8B8"/>
<path d="M94.8811 375.303C88.4963 379.192 81.2983 381.558 73.8472 382.218L76.0644 379.567C74.45 380.163 72.7513 380.5 71.0313 380.565C69.3134 380.538 67.5135 379.878 66.5385 378.466C66.1037 377.765 65.8454 376.968 65.7856 376.146C65.7258 375.323 65.8664 374.498 66.1953 373.741C66.871 372.231 67.9227 370.919 69.2502 369.929C71.6034 368.072 74.3805 366.824 77.334 366.298C80.2876 365.771 83.3259 365.982 86.1781 366.911C88.1345 367.494 89.8867 368.616 91.2339 370.147C92.5118 371.72 94.9719 373.121 94.3176 375.038L94.8811 375.303Z" fill="#2F2E41"/>
<path d="M78.8926 364.449C83.144 360.147 88.2887 356.828 93.9646 354.724C97.608 353.377 101.574 352.545 105.383 353.31C109.192 354.075 112.794 356.704 113.857 360.433C114.726 363.482 113.828 366.765 112.48 369.636C111.131 372.506 109.331 375.168 108.24 378.145C107.128 381.183 106.793 384.451 107.267 387.65C107.741 390.85 109.008 393.881 110.954 396.469C112.899 399.056 115.462 401.117 118.408 402.466C121.355 403.814 124.593 404.407 127.827 404.19C124.084 404.691 120.635 406.446 116.977 407.38C113.318 408.314 109.001 408.251 106.282 405.636C103.406 402.869 103.348 398.371 103.487 394.387C103.694 388.464 103.901 382.542 104.108 376.62C104.213 373.6 104.303 370.483 103.211 367.664C102.12 364.845 99.5256 362.376 96.4969 362.402C94.2015 362.421 92.1698 363.809 90.329 365.177C88.4881 366.545 86.5397 368.005 84.2533 368.209C81.9669 368.412 79.3563 366.724 79.5273 364.44L78.8926 364.449Z" fill="#2F2E41"/>
<path d="M67.8371 420.439L75.5315 420.648L76.0913 426.041L76.2175 427.29L88.2696 432.689L89.3672 433.182V442.781L88.2696 442.469L84.8011 441.484H84.7845L69.5056 437.141L69.3301 437.092C68.0955 436.736 67.0089 435.993 66.2317 434.972C65.4545 433.95 65.0283 432.706 65.0162 431.424L64.9779 425.056L64.9449 420.363L67.8371 420.439Z" fill="#FFB8B8"/>
<path d="M65.3345 409.772C65.4372 408.105 66.1994 406.547 67.4535 405.44C68.7076 404.334 70.3509 403.769 72.0218 403.872C73.6928 403.974 75.2545 404.735 76.3635 405.986C77.4725 407.237 78.0378 408.877 77.9352 410.544L77.0957 424.212C77.073 424.572 76.9712 424.922 76.7977 425.238C76.6241 425.555 76.383 425.829 76.0913 426.041C75.6274 426.386 75.0554 426.555 74.4779 426.518L68.5944 426.156L66.8108 426.047C66.4859 426.031 66.1677 425.949 65.8753 425.807C65.5829 425.665 65.3224 425.465 65.1095 425.22C65.0623 425.168 65.0184 425.113 64.9779 425.056C64.6291 424.59 64.4579 424.015 64.495 423.435L65.3345 409.772Z" fill="#3B1D6D"/>
<path d="M87.5615 446.516H88.2695V446.445C88.6318 446.494 88.9995 446.543 89.3671 446.598V447.611H84.2962C85.3609 447.228 86.4493 446.863 87.5615 446.516ZM87.5615 446.516H88.2695V446.445C88.6318 446.494 88.9995 446.543 89.3671 446.598V447.611H84.2962C85.3609 447.228 86.4493 446.863 87.5615 446.516ZM82.507 446.516H88.2695V420.505C88.2715 419.615 88.5631 418.749 89.1005 418.038C89.6379 417.327 90.3921 416.809 91.2496 416.562C91.618 416.452 92.0009 416.396 92.3856 416.398H141.23C142.321 416.4 143.367 416.833 144.139 417.603C144.911 418.372 145.345 419.416 145.346 420.505V447.337C145.346 448.427 144.912 449.471 144.14 450.241C143.368 451.011 142.321 451.444 141.23 451.444H82.507C81.899 451.443 81.3128 451.219 80.8603 450.814C80.4078 450.409 80.1207 449.852 80.0539 449.249C80.0428 449.16 80.0372 449.07 80.0373 448.98C80.0383 448.327 80.2988 447.701 80.7618 447.239C81.2247 446.777 81.8523 446.517 82.507 446.516ZM81.1349 448.98C81.1351 449.343 81.2797 449.691 81.537 449.948C81.7943 450.205 82.1431 450.349 82.507 450.349H141.23C142.03 450.349 142.798 450.031 143.364 449.467C143.93 448.902 144.248 448.136 144.248 447.337V420.505C144.248 419.707 143.93 418.941 143.364 418.376C142.798 417.811 142.03 417.494 141.23 417.493H92.3856C92.1508 417.493 91.9168 417.52 91.6886 417.576C91.0282 417.733 90.4402 418.108 90.0191 418.639C89.598 419.17 89.3684 419.828 89.3671 420.505V447.611H82.507C82.1736 447.612 81.8517 447.733 81.6014 447.953C81.351 448.172 81.1891 448.475 81.1459 448.805C81.1406 448.865 81.1349 448.92 81.1349 448.98ZM87.5615 446.516H88.2695V446.445C88.6318 446.494 88.9995 446.543 89.3671 446.598V447.611H84.2962C85.3609 447.228 86.4493 446.863 87.5615 446.516Z" fill="white"/>
<path d="M116.809 437.208C114.991 437.208 113.517 435.737 113.517 433.922C113.517 432.108 114.991 430.637 116.809 430.637C118.628 430.637 120.102 432.108 120.102 433.922C120.102 435.737 118.628 437.208 116.809 437.208Z" fill="#3B1D6D"/>
<path d="M410.927 164.081C410.939 164.331 410.932 164.582 410.905 164.831L428.138 179.262L433.278 177.406L437.1 184.778L425.863 190.115L407.023 169.019C406.071 169.192 405.09 169.071 404.209 168.673C403.328 168.275 402.59 167.619 402.092 166.792C401.594 165.965 401.36 165.007 401.421 164.044C401.482 163.081 401.836 162.16 402.434 161.402C403.033 160.645 403.849 160.087 404.773 159.803C405.697 159.52 406.686 159.524 407.608 159.815C408.53 160.105 409.341 160.669 409.934 161.431C410.527 162.193 410.873 163.118 410.927 164.081L410.927 164.081Z" fill="#FFB8B8"/>
<path d="M434.041 188.315L450.683 182.321C452.211 181.771 453.457 180.637 454.147 179.17C454.837 177.703 454.916 176.023 454.364 174.498C453.813 172.974 452.677 171.731 451.206 171.042C449.736 170.353 448.052 170.275 446.524 170.825L429.882 176.819C429.63 176.91 429.398 177.049 429.2 177.229C429.002 177.409 428.841 177.627 428.727 177.869C428.613 178.111 428.548 178.373 428.536 178.64C428.523 178.907 428.564 179.174 428.655 179.426L431.427 187.09C431.612 187.598 431.99 188.012 432.48 188.241C432.97 188.471 433.531 188.497 434.041 188.315V188.315Z" fill="#4A405F"/>
<path d="M446.229 246.705L440.667 246.704L438.021 225.299L446.23 225.299L446.229 246.705Z" fill="#FFB8B8"/>
<path d="M429.941 251.857L447.421 251.858L447.421 245.119L436.694 245.118C434.903 245.118 433.185 245.828 431.919 247.092C430.652 248.356 429.941 250.07 429.94 251.857L429.941 251.857Z" fill="#2F2E41"/>
<path d="M459.974 239.536L455.425 242.727L440.921 226.736L447.635 222.026L459.974 239.536Z" fill="#FFB8B8"/>
<path d="M450.169 252.004L464.469 241.972L460.584 236.459L451.809 242.615C450.344 243.643 449.348 245.21 449.041 246.97C448.733 248.731 449.139 250.542 450.169 252.004L450.169 252.004Z" fill="#2F2E41"/>
<path d="M434.059 208.145C434.059 208.145 420.179 206.511 422.67 215.498C425.161 224.485 452.921 232.246 452.921 232.246L434.059 208.145Z" fill="#FFB8B8"/>
<path d="M443.612 162.29C437.458 162.29 432.47 157.312 432.47 151.172C432.47 145.032 437.458 140.054 443.612 140.054C449.766 140.054 454.755 145.032 454.755 151.172C454.755 157.312 449.766 162.29 443.612 162.29Z" fill="#FFB8B8"/>
<path d="M479.146 230.406C485.487 223.04 487.705 211.734 477.594 202.331C475.097 200.066 472.269 198.193 469.208 196.775L461.059 174.036C460.213 171.661 458.661 169.6 456.61 168.129C454.56 166.657 452.108 165.844 449.583 165.799C447.131 165.693 444.706 166.348 442.642 167.672C440.578 168.997 438.975 170.927 438.054 173.196C437.059 175.506 436.945 178.099 437.734 180.486C440.16 188.024 443.346 195.297 447.242 202.193L446.821 205.556L426.223 207.383L426.415 207.695C426.516 207.857 436.597 223.183 449.493 233.355C453.902 236.833 458.462 238.275 462.766 238.275C469.292 238.274 475.227 234.959 479.146 230.406Z" fill="#4A405F"/>
<path d="M481.09 154.66C479.119 152.316 478.273 149.25 477.593 146.267C476.517 141.546 475.684 136.665 473.293 132.452C470.902 128.239 466.508 124.748 461.664 125.014C456.846 125.278 452.952 129.145 450.885 133.545C450.384 133.351 449.848 133.264 449.312 133.29C448.775 133.316 448.25 133.454 447.771 133.695C446.281 134.509 445.724 136.823 446.964 137.981C445.66 137.362 444.239 137.023 442.795 136.987C441.351 136.951 439.915 137.219 438.581 137.773C436.866 138.501 435.386 139.688 434.303 141.201C433.22 142.715 432.577 144.498 432.444 146.353C432.392 147.106 432.495 147.861 432.748 148.573C433.001 149.284 433.397 149.936 433.913 150.488C436.05 152.684 439.074 151.927 441.763 151.367C444.302 150.839 447.395 150.696 448.826 153.11C449.39 154.116 449.547 155.299 449.267 156.417C448.719 158.827 446.931 160.506 445.196 162.112L444.912 162.638C451.038 163.83 457.727 159.656 459.334 153.639C460.94 147.622 457.22 140.68 451.312 138.673C451.705 138.685 452.095 138.592 452.44 138.404C452.785 138.216 453.074 137.939 453.276 137.602C453.478 137.266 453.586 136.881 453.59 136.489C453.593 136.096 453.492 135.71 453.296 135.37C454.931 134.456 456.782 133.995 458.656 134.036C461.707 134.235 464.348 136.403 465.936 139.01C467.524 141.618 468.243 144.645 468.972 147.608C469.7 150.572 470.489 153.592 472.187 156.13C473.363 157.888 474.935 159.347 476.776 160.391C478.618 161.435 480.679 162.035 482.794 162.144C484.91 162.252 487.021 161.865 488.96 161.015C490.899 160.164 492.612 158.873 493.962 157.245C491.829 158.277 489.415 158.583 487.09 158.116C484.765 157.65 482.658 156.435 481.09 154.66Z" fill="#2F2E41"/>
<path d="M399.251 184.958C390.306 184.958 383.055 177.723 383.055 168.798C383.055 159.873 390.306 152.637 399.251 152.637C408.196 152.637 415.448 159.873 415.448 168.798C415.448 177.723 408.196 184.958 399.251 184.958Z" fill="#3B1D6D"/>
<path d="M399.749 177.886C399.815 177.821 399.867 177.744 399.902 177.659C399.937 177.573 399.955 177.482 399.955 177.39V159.503C399.955 159.317 399.881 159.138 399.749 159.007C399.617 158.875 399.438 158.801 399.251 158.801C399.064 158.801 398.885 158.875 398.753 159.007C398.621 159.138 398.547 159.317 398.547 159.503V177.39C398.547 177.529 398.588 177.664 398.666 177.78C398.743 177.895 398.853 177.985 398.982 178.039C399.11 178.092 399.252 178.106 399.389 178.079C399.525 178.052 399.651 177.985 399.749 177.886H399.749Z" fill="white"/>
<path d="M408.712 168.943C408.81 168.845 408.878 168.72 408.905 168.584C408.932 168.447 408.918 168.306 408.865 168.178C408.811 168.049 408.721 167.94 408.605 167.862C408.489 167.785 408.353 167.744 408.214 167.744H390.288C390.101 167.744 389.922 167.818 389.79 167.95C389.658 168.081 389.584 168.26 389.584 168.447C389.584 168.633 389.658 168.812 389.79 168.943C389.922 169.075 390.101 169.149 390.288 169.149H408.214C408.307 169.149 408.398 169.131 408.484 169.096C408.569 169.061 408.647 169.009 408.712 168.943Z" fill="white"/>
<path d="M410.369 179.607C410.486 179.828 410.586 180.059 410.668 180.296L432.415 186.05L436.276 182.19L442.876 187.242L434.979 196.838L408.938 185.733C408.151 186.292 407.211 186.599 406.244 186.613C405.277 186.626 404.329 186.346 403.526 185.808C402.723 185.271 402.103 184.503 401.748 183.605C401.393 182.708 401.321 181.724 401.54 180.784C401.76 179.844 402.261 178.994 402.976 178.345C403.692 177.696 404.589 177.281 405.547 177.153C406.506 177.025 407.48 177.191 408.341 177.63C409.203 178.068 409.91 178.758 410.369 179.607L410.369 179.607Z" fill="#FFB8B8"/>
<path d="M441.614 191.741L454.125 179.257C454.695 178.69 455.147 178.017 455.457 177.275C455.766 176.533 455.925 175.738 455.926 174.934C455.926 174.131 455.768 173.335 455.461 172.593C455.153 171.851 454.701 171.176 454.132 170.608C453.563 170.04 452.887 169.589 452.143 169.282C451.399 168.975 450.601 168.817 449.796 168.818C448.991 168.819 448.194 168.978 447.45 169.286C446.707 169.595 446.032 170.046 445.463 170.615L432.952 183.098C432.763 183.288 432.612 183.512 432.51 183.759C432.407 184.006 432.354 184.271 432.354 184.539C432.354 184.806 432.407 185.071 432.51 185.318C432.612 185.565 432.763 185.79 432.952 185.979L438.727 191.741C439.11 192.122 439.629 192.336 440.17 192.336C440.711 192.336 441.23 192.122 441.614 191.741V191.741Z" fill="#4A405F"/>
<path d="M465.28 458.499C468.751 460.842 472.772 462.121 476.893 462.19C481.014 462.259 485.072 461.116 488.611 458.89C487.989 457.668 487.2 456.548 486.269 455.567C484.834 454.046 483.087 452.892 481.163 452.194C479.239 451.496 477.189 451.273 475.17 451.541C473.152 451.809 471.218 452.562 469.518 453.741C467.819 454.92 466.398 456.495 465.365 458.344C465.338 458.394 465.308 458.446 465.28 458.499Z" fill="#3B1D6D"/>
<path d="M477.843 446.947C471.896 446.947 467.075 442.129 467.075 436.186C467.075 430.242 471.896 425.424 477.843 425.424C483.79 425.424 488.611 430.242 488.611 436.186C488.611 442.129 483.79 446.947 477.843 446.947Z" fill="#2F2E41"/>
<path d="M469.607 443.545C467.467 439.632 468.906 434.727 472.821 432.588C476.736 430.449 481.645 431.887 483.786 435.799C485.926 439.712 484.487 444.618 480.572 446.757C476.656 448.896 471.747 447.458 469.607 443.545Z" fill="#FFB8B8"/>
<path d="M485.022 434.352C483.234 435.659 481.112 436.355 478.941 436.345C479.715 436.915 480.597 437.3 481.525 437.473C478.638 438.13 475.655 438.148 472.761 437.525C472.118 437.416 471.497 437.19 470.927 436.857C470.642 436.688 470.394 436.458 470.199 436.182C470.004 435.905 469.866 435.588 469.794 435.251C469.602 434.085 470.458 433.027 471.347 432.313C472.709 431.238 474.279 430.497 475.945 430.144C477.61 429.791 479.328 429.835 480.975 430.273C482.05 430.568 483.128 431.066 483.826 431.982C484.525 432.898 484.732 434.31 484.066 435.254L485.022 434.352Z" fill="#2F2E41"/>
<path d="M476.504 462.193C481.794 462.191 486.905 460.283 490.901 456.82C494.898 453.356 497.51 448.569 498.26 443.336C499.01 438.103 497.847 432.775 494.984 428.33C492.121 423.885 487.75 420.62 482.674 419.135C477.597 417.65 472.155 418.044 467.345 420.244C462.536 422.445 458.681 426.304 456.489 431.115C454.297 435.926 453.914 441.366 455.41 446.436C456.906 451.507 460.182 455.868 464.635 458.72C468.177 460.99 472.297 462.195 476.504 462.193ZM476.504 418.725C480.757 418.724 484.915 419.985 488.452 422.346C491.989 424.707 494.746 428.064 496.374 431.991C498.002 435.918 498.428 440.24 497.598 444.409C496.768 448.578 494.72 452.408 491.712 455.413C488.705 458.419 484.873 460.466 480.701 461.295C476.529 462.125 472.205 461.699 468.275 460.072C464.346 458.445 460.987 455.69 458.624 452.155C456.261 448.621 455 444.465 455.001 440.214C455.007 434.517 457.275 429.055 461.306 425.026C465.337 420.997 470.803 418.731 476.504 418.725Z" fill="#3F3D56"/>
<path d="M272.35 386.192C272.736 386.388 273.13 386.574 273.529 386.749C273.894 386.909 274.264 387.059 274.639 387.2C274.777 387.251 274.916 387.301 275.056 387.352C276.16 387.741 277.294 388.045 278.448 388.261C279.019 388.37 279.598 388.456 280.184 388.518C280.667 388.571 281.156 388.609 281.65 388.632C282.002 388.649 282.354 388.656 282.708 388.656C284.11 388.656 285.51 388.529 286.888 388.276C287.247 388.213 287.599 388.137 287.95 388.055C289.651 387.659 291.298 387.068 292.856 386.296C292.996 386.228 293.135 386.155 293.275 386.085C293.482 385.978 293.684 385.867 293.886 385.751C293.789 385.62 293.684 385.491 293.577 385.365C292.41 383.96 290.951 382.81 289.296 381.989C287.64 381.169 285.826 380.696 283.97 380.602C282.114 380.508 280.258 380.796 278.524 381.445C276.79 382.095 275.217 383.092 273.906 384.372C273.451 384.816 273.029 385.29 272.644 385.792C272.542 385.923 272.445 386.056 272.35 386.192Z" fill="#3B1D6D"/>
<path d="M282.669 375.204C276.474 375.204 271.452 370.386 271.452 364.443C271.452 358.499 276.474 353.681 282.669 353.681C288.864 353.681 293.886 358.499 293.886 364.443C293.886 370.386 288.864 375.204 282.669 375.204Z" fill="#2F2E41"/>
<path d="M279.783 375.722C275.894 373.597 274.464 368.724 276.59 364.837C278.716 360.95 283.593 359.521 287.482 361.646C291.372 363.771 292.801 368.644 290.675 372.531C288.549 376.418 283.672 377.847 279.783 375.722Z" fill="#A0616A"/>
<path d="M275.042 363.506C276.935 364.813 279.181 365.508 281.48 365.499C280.66 366.069 279.727 366.453 278.744 366.627C281.801 367.284 284.96 367.301 288.023 366.679C288.705 366.57 289.362 366.344 289.966 366.011C290.267 365.842 290.53 365.612 290.736 365.335C290.943 365.058 291.089 364.741 291.165 364.404C291.369 363.239 290.462 362.18 289.521 361.467C288.079 360.391 286.416 359.65 284.653 359.297C282.89 358.945 281.071 358.989 279.327 359.426C278.188 359.721 277.047 360.22 276.308 361.136C275.568 362.052 275.349 363.464 276.054 364.407L275.042 363.506Z" fill="#2F2E41"/>
<path d="M283.118 344.713C288.01 344.713 292.769 346.279 296.668 349.173C300.568 352.067 303.394 356.13 304.717 360.743C306.039 365.356 305.785 370.267 303.994 374.726C302.202 379.184 298.971 382.947 294.793 385.441L294.649 385.524C294.529 385.595 294.409 385.663 294.29 385.729C294.088 385.846 293.886 385.958 293.679 386.066C293.54 386.137 293.4 386.21 293.26 386.278C291.703 387.057 290.057 387.651 288.357 388.05C288.006 388.133 287.655 388.209 287.295 388.273C285.918 388.528 284.52 388.656 283.118 388.656C282.764 388.656 282.412 388.649 282.061 388.631C281.567 388.61 281.079 388.571 280.595 388.517C280.009 388.453 279.431 388.367 278.86 388.258C277.708 388.041 276.574 387.735 275.47 387.343C275.331 387.291 275.191 387.24 275.054 387.189C274.678 387.047 274.308 386.896 273.945 386.735C273.546 386.559 273.153 386.372 272.766 386.173C268.885 384.183 265.678 381.132 263.533 377.392C263.523 377.372 263.511 377.353 263.501 377.333C262.356 375.322 261.544 373.146 261.095 370.886C260.465 367.704 260.56 364.426 261.375 361.284C262.19 358.143 263.704 355.217 265.808 352.716C267.913 350.215 270.556 348.201 273.548 346.817C276.541 345.434 279.809 344.715 283.118 344.713H283.118ZM263.91 377.048C263.929 377.082 263.947 377.116 263.967 377.148C266.069 380.833 269.231 383.832 273.06 385.77C273.441 385.966 273.829 386.149 274.224 386.32C274.551 386.464 274.885 386.6 275.221 386.727C275.363 386.781 275.508 386.835 275.652 386.884C276.606 387.225 277.583 387.499 278.576 387.704C279.313 387.857 280.058 387.972 280.807 388.048C281.268 388.097 281.737 388.131 282.208 388.148C282.51 388.16 282.814 388.168 283.118 388.168C284.474 388.169 285.828 388.046 287.161 387.799C287.972 387.653 288.773 387.46 289.561 387.223C290.762 386.86 291.929 386.397 293.049 385.839C293.178 385.773 293.308 385.707 293.435 385.639C293.617 385.543 293.801 385.446 293.981 385.341C294.115 385.267 294.25 385.189 294.382 385.111C294.459 385.067 294.537 385.021 294.614 384.974C298.277 382.771 301.199 379.563 303.017 375.749C304.836 371.934 305.471 367.68 304.843 363.515C304.216 359.35 302.353 355.457 299.488 352.32C296.622 349.182 292.878 346.937 288.721 345.864C284.565 344.791 280.178 344.937 276.105 346.283C272.032 347.63 268.453 350.118 265.81 353.438C263.168 356.759 261.58 360.767 261.242 364.964C260.904 369.161 261.831 373.362 263.91 377.048H263.91Z" fill="#3F3D56"/>
<path d="M288.138 354.515C288.25 353.271 289.688 352.504 290.813 352.88C291.938 353.256 292.677 354.457 292.9 355.684C293.007 356.201 293.017 356.736 292.93 357.257C292.842 357.778 292.658 358.276 292.388 358.721C291.82 359.588 290.775 360.13 289.8 359.91C288.688 359.658 287.917 358.507 287.696 357.324C287.476 356.141 287.695 354.922 287.913 353.739L288.138 354.515Z" fill="#2F2E41"/>
<path d="M271.178 356.092C271.308 355.003 272.986 354.333 274.298 354.662C275.611 354.991 276.472 356.041 276.733 357.115C276.858 357.568 276.87 358.035 276.767 358.491C276.665 358.947 276.45 359.383 276.136 359.773C275.472 360.532 274.253 361.005 273.116 360.812C271.818 360.593 270.919 359.585 270.662 358.55C270.405 357.515 270.66 356.448 270.915 355.413L271.178 356.092Z" fill="#2F2E41"/>
<path d="M450.783 425.348C450.991 425.268 451.17 425.126 451.295 424.941C451.421 424.757 451.488 424.538 451.487 424.315V412.735C451.487 412.343 451.642 411.967 451.918 411.69C452.194 411.413 452.568 411.257 452.959 411.257H455.32C456.295 411.256 457.23 410.866 457.92 410.173C458.61 409.48 458.998 408.541 458.999 407.561V384.28C458.998 383.3 458.61 382.361 457.92 381.668C457.23 380.976 456.295 380.586 455.32 380.585H372.045C371.07 380.586 370.135 380.976 369.445 381.668C368.755 382.361 368.367 383.3 368.366 384.28V407.561C368.367 408.541 368.755 409.48 369.445 410.173C370.135 410.866 371.07 411.256 372.045 411.257H436.321C436.525 411.257 436.727 411.3 436.914 411.382C437.1 411.465 437.268 411.585 437.406 411.736L449.57 425.064C449.672 425.177 449.797 425.268 449.937 425.33C450.077 425.392 450.228 425.424 450.38 425.424C450.518 425.424 450.655 425.398 450.783 425.348Z" fill="white"/>
<path d="M450.783 425.348C450.991 425.268 451.17 425.126 451.295 424.941C451.421 424.757 451.488 424.538 451.487 424.315V412.735C451.487 412.343 451.642 411.967 451.918 411.69C452.194 411.413 452.568 411.257 452.959 411.257H455.32C456.295 411.256 457.23 410.866 457.92 410.173C458.61 409.48 458.998 408.541 458.999 407.561V384.28C458.998 383.3 458.61 382.361 457.92 381.668C457.23 380.976 456.295 380.586 455.32 380.585H372.045C371.07 380.586 370.135 380.976 369.445 381.668C368.755 382.361 368.367 383.3 368.366 384.28V407.561C368.367 408.541 368.755 409.48 369.445 410.173C370.135 410.866 371.07 411.256 372.045 411.257H436.321C436.525 411.257 436.727 411.3 436.914 411.382C437.1 411.465 437.268 411.585 437.406 411.736L449.57 425.064C449.672 425.177 449.797 425.268 449.937 425.33C450.077 425.392 450.228 425.424 450.38 425.424C450.518 425.424 450.655 425.398 450.783 425.348ZM455.32 381.077C456.165 381.078 456.976 381.416 457.573 382.016C458.171 382.617 458.507 383.431 458.508 384.28V407.561C458.507 408.411 458.171 409.225 457.573 409.825C456.976 410.426 456.165 410.763 455.32 410.764H452.959C452.438 410.765 451.94 410.973 451.572 411.342C451.204 411.712 450.997 412.213 450.997 412.735V424.315C450.997 424.439 450.959 424.56 450.889 424.663C450.82 424.765 450.721 424.844 450.606 424.889C450.49 424.934 450.364 424.943 450.244 424.915C450.124 424.887 450.015 424.823 449.931 424.731L437.768 411.403C437.584 411.202 437.36 411.042 437.111 410.932C436.862 410.822 436.593 410.765 436.321 410.764H372.045C371.2 410.763 370.389 410.426 369.791 409.825C369.194 409.225 368.857 408.411 368.856 407.561V384.28C368.857 383.431 369.194 382.617 369.791 382.016C370.389 381.416 371.2 381.078 372.045 381.077H455.32Z" fill="#3F3D56"/>
<path d="M448.679 391.346C446.945 391.346 445.538 389.74 445.538 387.759C445.538 385.778 446.945 384.172 448.679 384.172C450.414 384.172 451.82 385.778 451.82 387.759C451.82 389.74 450.414 391.346 448.679 391.346Z" fill="#3B1D6D"/>
<path d="M374.565 405.695H450.106C450.331 405.695 450.554 405.649 450.762 405.559C450.97 405.469 451.158 405.337 451.318 405.17C451.477 405.004 451.603 404.806 451.689 404.588C451.775 404.37 451.82 404.137 451.82 403.901C451.82 403.666 451.775 403.432 451.689 403.214C451.603 402.997 451.477 402.799 451.318 402.632C451.158 402.466 450.97 402.334 450.762 402.244C450.554 402.154 450.331 402.107 450.106 402.108H374.565C374.111 402.108 373.675 402.297 373.354 402.633C373.033 402.969 372.853 403.426 372.853 403.901C372.853 404.377 373.033 404.833 373.354 405.17C373.675 405.506 374.111 405.695 374.565 405.695Z" fill="#635878"/>
<path d="M398.803 398.521H450.094C450.32 398.521 450.545 398.475 450.754 398.385C450.964 398.295 451.154 398.163 451.314 397.996C451.474 397.829 451.602 397.632 451.688 397.414C451.775 397.196 451.82 396.963 451.82 396.727C451.82 396.491 451.775 396.258 451.688 396.04C451.602 395.822 451.474 395.625 451.314 395.458C451.154 395.291 450.964 395.159 450.754 395.069C450.545 394.979 450.32 394.933 450.094 394.933H398.803C398.347 394.934 397.909 395.123 397.586 395.46C397.263 395.796 397.081 396.252 397.081 396.727C397.081 397.202 397.263 397.658 397.586 397.995C397.909 398.331 398.347 398.52 398.803 398.521Z" fill="#635878"/>
<path d="M316.862 343.816C317.015 343.816 317.166 343.785 317.305 343.724C317.445 343.663 317.57 343.574 317.673 343.463L329.836 330.402C329.974 330.254 330.142 330.136 330.329 330.055C330.515 329.974 330.717 329.933 330.921 329.932H395.197C396.172 329.931 397.108 329.549 397.797 328.87C398.487 328.191 398.875 327.271 398.876 326.311V303.495C398.875 302.535 398.487 301.615 397.797 300.936C397.108 300.257 396.172 299.875 395.197 299.874H311.923C310.947 299.875 310.012 300.257 309.323 300.936C308.633 301.615 308.245 302.535 308.244 303.495V326.311C308.245 327.271 308.633 328.192 309.323 328.87C310.012 329.549 310.947 329.931 311.923 329.932H314.284C314.674 329.933 315.048 330.086 315.324 330.357C315.6 330.629 315.755 330.997 315.756 331.381V342.729C315.755 342.948 315.821 343.162 315.947 343.343C316.073 343.524 316.251 343.663 316.459 343.741C316.588 343.791 316.724 343.816 316.862 343.816Z" fill="white"/>
<path d="M316.862 343.816C317.015 343.816 317.166 343.785 317.305 343.724C317.445 343.663 317.57 343.574 317.673 343.463L329.836 330.402C329.974 330.254 330.142 330.136 330.329 330.055C330.515 329.974 330.717 329.933 330.921 329.932H395.197C396.172 329.931 397.108 329.549 397.797 328.87C398.487 328.191 398.875 327.271 398.876 326.311V303.495C398.875 302.535 398.487 301.615 397.797 300.936C397.108 300.257 396.172 299.875 395.197 299.874H311.923C310.947 299.875 310.012 300.257 309.323 300.936C308.633 301.615 308.245 302.535 308.244 303.495V326.311C308.245 327.271 308.633 328.192 309.323 328.87C310.012 329.549 310.947 329.931 311.923 329.932H314.284C314.674 329.933 315.048 330.086 315.324 330.357C315.6 330.629 315.755 330.997 315.756 331.381V342.729C315.755 342.948 315.821 343.162 315.947 343.343C316.073 343.524 316.251 343.663 316.459 343.741C316.588 343.791 316.724 343.816 316.862 343.816ZM395.197 300.356C396.042 300.357 396.853 300.688 397.451 301.277C398.049 301.865 398.385 302.663 398.386 303.495V326.311C398.385 327.143 398.049 327.941 397.451 328.529C396.853 329.118 396.042 329.449 395.197 329.45H330.921C330.649 329.45 330.38 329.506 330.131 329.614C329.882 329.721 329.659 329.879 329.475 330.076L317.311 343.137C317.228 343.227 317.119 343.289 316.998 343.317C316.878 343.345 316.752 343.336 316.637 343.292C316.522 343.248 316.423 343.17 316.353 343.07C316.283 342.97 316.246 342.851 316.246 342.729V331.381C316.245 330.869 316.038 330.378 315.67 330.016C315.303 329.654 314.804 329.45 314.284 329.45H311.923C311.077 329.449 310.267 329.118 309.669 328.529C309.071 327.941 308.735 327.143 308.734 326.311V303.495C308.735 302.663 309.071 301.865 309.669 301.277C310.267 300.688 311.077 300.357 311.923 300.356H395.197Z" fill="#3F3D56"/>
<path d="M389.454 310.635C387.719 310.635 386.313 309.029 386.313 307.048C386.313 305.067 387.719 303.461 389.454 303.461C391.189 303.461 392.595 305.067 392.595 307.048C392.595 309.029 391.189 310.635 389.454 310.635Z" fill="#3B1D6D"/>
<path d="M315.338 324.984H390.881C391.106 324.984 391.329 324.938 391.536 324.848C391.744 324.758 391.933 324.626 392.093 324.459C392.252 324.293 392.378 324.095 392.464 323.877C392.55 323.659 392.595 323.426 392.595 323.19C392.595 322.955 392.55 322.721 392.464 322.503C392.378 322.286 392.252 322.088 392.093 321.921C391.933 321.755 391.744 321.623 391.536 321.533C391.329 321.443 391.106 321.396 390.881 321.397H315.338C314.884 321.397 314.449 321.587 314.129 321.923C313.808 322.259 313.628 322.715 313.628 323.19C313.628 323.666 313.808 324.122 314.129 324.458C314.449 324.794 314.884 324.983 315.338 324.984Z" fill="#635878"/>
<path d="M339.58 317.81H390.869C391.095 317.81 391.32 317.764 391.529 317.674C391.738 317.584 391.929 317.452 392.089 317.285C392.249 317.118 392.377 316.921 392.463 316.703C392.55 316.485 392.595 316.252 392.595 316.016C392.595 315.78 392.55 315.547 392.463 315.329C392.377 315.111 392.249 314.914 392.089 314.747C391.929 314.58 391.738 314.448 391.529 314.358C391.32 314.268 391.095 314.222 390.869 314.222H339.58C339.123 314.222 338.685 314.411 338.361 314.748C338.038 315.084 337.856 315.54 337.856 316.016C337.856 316.492 338.038 316.948 338.361 317.284C338.685 317.621 339.123 317.81 339.58 317.81Z" fill="#635878"/>
</g>
<defs>
<clipPath id="clip0">
<rect width="542" height="391" fill="white" transform="matrix(-1 0 0 1 593.601 125)"/>
</clipPath>
</defs>
</svg>
